<svg xmlns="http://www.w3.org/2000/svg" xmlns:xlink="http://www.w3.org/1999/xlink" width="250" zoomAndPan="magnify" viewBox="0 0 187.5 112.499997" height="150" preserveAspectRatio="xMidYMid meet" version="1.0"><defs><g/></defs><g fill="#f5f5f5" fill-opacity="1"><g transform="translate(14.979849, 62.198766)"><g><path d="M 11.972656 9.335938 L 12.539062 8.484375 C 12.917969 7.824219 13.390625 7.164062 13.765625 6.503906 L 15.179688 3.960938 C 15.273438 3.773438 15.273438 3.488281 15.367188 3.300781 L 15.933594 2.453125 C 16.3125 1.792969 16.59375 1.039062 17.253906 0.566406 C 17.347656 0.472656 17.347656 0.378906 17.347656 0.28125 C 17.726562 -0.472656 17.914062 -1.226562 18.574219 -1.792969 C 18.667969 -1.886719 18.667969 -1.980469 18.761719 -2.074219 C 19.234375 -2.921875 19.515625 -3.773438 20.082031 -4.527344 C 20.460938 -4.996094 20.835938 -5.46875 20.933594 -6.128906 C 21.6875 -7.070312 22.347656 -8.109375 22.910156 -9.144531 C 23.195312 -9.523438 23.382812 -9.996094 23.570312 -10.371094 C 24.230469 -11.503906 24.890625 -12.539062 25.550781 -13.671875 L 26.117188 -14.804688 C 26.304688 -15.179688 26.589844 -15.464844 26.777344 -15.839844 C 26.871094 -15.933594 26.871094 -16.027344 26.871094 -16.125 C 26.777344 -16.5 26.964844 -16.78125 27.15625 -16.972656 C 27.4375 -17.160156 27.71875 -17.347656 27.625 -17.726562 L 27.71875 -17.820312 C 28.285156 -18.007812 28.476562 -18.574219 28.757812 -19.046875 C 28.851562 -19.140625 28.945312 -19.234375 29.039062 -19.234375 C 29.605469 -19.515625 29.984375 -20.082031 29.984375 -20.648438 C 29.324219 -20.367188 29.230469 -19.515625 28.664062 -19.140625 C 28.945312 -19.707031 29.230469 -20.175781 29.605469 -20.648438 C 29.890625 -21.121094 30.550781 -21.402344 30.550781 -22.0625 L 31.773438 -23.289062 C 31.585938 -23.570312 31.867188 -23.761719 31.964844 -23.949219 C 32.246094 -24.421875 32.625 -24.796875 32.90625 -25.269531 C 33.09375 -25.550781 33.472656 -25.835938 33.1875 -26.210938 L 33.285156 -26.304688 C 33.472656 -26.210938 33.472656 -26.402344 33.566406 -26.496094 L 33.847656 -26.777344 C 34.132812 -26.964844 34.226562 -27.25 34.320312 -27.53125 C 34.414062 -27.816406 34.507812 -28.191406 34.980469 -28.191406 C 35.167969 -28.191406 35.261719 -28.378906 35.261719 -28.570312 C 35.261719 -28.851562 35.359375 -29.132812 35.640625 -29.324219 C 35.734375 -29.324219 35.734375 -29.417969 35.734375 -29.511719 C 35.828125 -29.890625 36.113281 -30.171875 36.488281 -30.359375 C 36.582031 -30.359375 36.679688 -30.453125 36.679688 -30.550781 C 36.867188 -31.113281 37.621094 -31.210938 37.714844 -31.867188 C 37.714844 -31.867188 37.808594 -31.964844 37.902344 -31.964844 C 38.28125 -32.058594 38.375 -32.339844 38.375 -32.625 C 38.375 -32.71875 38.375 -32.90625 38.46875 -33 C 38.5625 -33.09375 38.753906 -33.09375 38.5625 -33.378906 C 38.46875 -33.472656 38.847656 -33.660156 39.035156 -33.566406 L 39.222656 -33.566406 C 39.316406 -33.660156 39.316406 -33.753906 39.316406 -33.847656 L 39.316406 -34.132812 L 39.601562 -33.847656 L 39.601562 -33.753906 C 40.070312 -34.132812 40.261719 -34.699219 40.449219 -35.167969 C 40.542969 -35.453125 40.542969 -35.640625 40.921875 -35.828125 C 41.203125 -35.921875 41.390625 -36.394531 41.488281 -36.773438 C 41.582031 -37.148438 41.675781 -37.433594 41.957031 -37.621094 C 42.242188 -37.902344 42.523438 -38.1875 42.617188 -38.65625 C 42.617188 -38.753906 42.710938 -38.847656 42.804688 -38.941406 C 42.902344 -39.128906 43.089844 -39.316406 43.089844 -39.410156 C 43.089844 -39.976562 43.464844 -40.261719 43.75 -40.636719 C 44.316406 -41.390625 44.410156 -42.902344 44.410156 -43.84375 C 44.410156 -45.164062 43.84375 -46.199219 42.996094 -47.144531 L 44.691406 -47.710938 C 44.597656 -47.804688 44.410156 -47.992188 44.222656 -47.992188 L 42.804688 -48.273438 C 42.335938 -48.371094 41.863281 -48.085938 41.675781 -47.710938 L 39.695312 -44.03125 C 39.507812 -43.75 39.316406 -43.371094 39.128906 -43.089844 C 39.035156 -42.804688 38.847656 -42.523438 38.753906 -42.242188 C 38.65625 -41.957031 38.28125 -41.863281 38.1875 -41.582031 C 38.1875 -41.296875 37.996094 -41.109375 37.808594 -41.015625 C 37.714844 -41.015625 37.621094 -40.921875 37.527344 -40.828125 L 35.261719 -36.867188 L 32.152344 -31.773438 L 31.585938 -30.644531 L 28.191406 -25.269531 C 28.003906 -24.984375 27.816406 -24.796875 27.4375 -24.796875 C 26.304688 -24.796875 25.175781 -24.703125 24.042969 -24.703125 L 21.78125 -24.703125 C 19.421875 -24.609375 17.066406 -24.421875 14.707031 -24.324219 C 14.332031 -24.324219 14.332031 -24.324219 14.425781 -24.703125 L 14.425781 -24.984375 C 14.332031 -24.984375 14.238281 -24.984375 14.144531 -24.890625 C 13.953125 -24.703125 13.859375 -24.515625 13.671875 -24.324219 C 13.578125 -24.230469 13.390625 -24.230469 13.390625 -24.515625 C 13.390625 -24.703125 13.390625 -24.703125 13.199219 -24.609375 C 13.199219 -24.609375 13.011719 -24.703125 13.011719 -24.796875 L 13.011719 -25.082031 C 13.199219 -25.175781 13.292969 -25.457031 13.578125 -25.363281 L 13.671875 -25.550781 C 13.484375 -25.742188 13.578125 -25.835938 13.765625 -25.835938 C 14.046875 -25.929688 14.238281 -26.117188 14.144531 -26.304688 C 13.953125 -26.589844 14.046875 -26.589844 14.144531 -26.777344 C 14.332031 -26.964844 14.804688 -27.058594 14.425781 -27.4375 C 14.425781 -27.53125 14.519531 -27.71875 14.613281 -27.816406 C 14.613281 -27.910156 14.707031 -28.003906 14.707031 -28.097656 C 14.804688 -28.378906 14.898438 -28.476562 15.179688 -28.476562 C 15.273438 -28.476562 15.367188 -28.570312 15.367188 -28.570312 C 15.179688 -28.945312 15.464844 -29.132812 15.746094 -29.324219 C 15.839844 -29.417969 15.839844 -29.605469 15.933594 -29.699219 L 17.066406 -31.679688 C 16.78125 -30.550781 15.839844 -29.699219 15.558594 -28.570312 L 15.839844 -28.851562 C 16.027344 -29.132812 16.21875 -29.417969 16.5 -29.699219 C 16.6875 -29.890625 16.878906 -29.984375 17.066406 -30.171875 C 17.160156 -30.265625 17.253906 -30.453125 16.972656 -30.453125 C 16.78125 -30.453125 16.78125 -30.550781 16.878906 -30.644531 C 16.972656 -30.738281 17.066406 -30.832031 17.160156 -30.832031 C 17.632812 -31.019531 17.820312 -31.492188 17.820312 -31.964844 C 18.007812 -32.339844 18.386719 -32.625 18.292969 -33.1875 C 18.292969 -33.378906 18.480469 -33.660156 18.667969 -33.753906 C 18.953125 -33.945312 19.046875 -34.226562 19.234375 -34.507812 C 19.515625 -35.167969 19.988281 -35.734375 20.367188 -36.300781 C 20.460938 -36.488281 20.648438 -36.679688 20.742188 -36.867188 C 20.835938 -37.148438 20.933594 -37.433594 21.214844 -37.621094 L 21.496094 -37.902344 L 21.78125 -38.46875 C 21.96875 -38.941406 22.25 -39.410156 22.15625 -39.976562 C 22.15625 -40.167969 22.25 -40.355469 22.347656 -40.542969 C 22.441406 -40.730469 22.628906 -40.921875 22.722656 -41.109375 C 23.007812 -42.050781 23.101562 -42.996094 23.195312 -43.9375 C 23.195312 -44.597656 23.195312 -45.257812 22.722656 -45.824219 C 22.535156 -46.011719 22.347656 -46.296875 22.15625 -46.484375 C 22.0625 -46.578125 21.875 -46.671875 21.6875 -46.671875 L 21.402344 -46.671875 C 21.121094 -46.578125 20.835938 -46.578125 20.554688 -46.578125 C 20.273438 -46.578125 20.082031 -46.390625 19.894531 -46.105469 C 19.515625 -45.539062 19.140625 -44.878906 18.761719 -44.222656 C 18.667969 -44.03125 18.480469 -43.84375 18.480469 -43.65625 C 18.386719 -43.183594 18.292969 -42.804688 17.820312 -42.617188 C 17.726562 -42.617188 17.632812 -42.523438 17.632812 -42.429688 C 17.539062 -41.769531 17.160156 -41.203125 16.78125 -40.636719 C 16.40625 -40.070312 16.027344 -39.410156 15.746094 -38.753906 C 15.558594 -38.46875 15.464844 -38.09375 15.273438 -37.808594 C 15.273438 -37.714844 15.179688 -37.621094 15.085938 -37.621094 C 14.613281 -37.335938 14.332031 -36.867188 14.238281 -36.394531 C 14.238281 -36.113281 14.238281 -35.828125 13.859375 -35.828125 L 13.765625 -35.640625 C 13.953125 -35.546875 13.765625 -35.453125 13.671875 -35.359375 L 12.824219 -33.660156 L 10.277344 -29.417969 C 9.898438 -28.851562 9.617188 -28.191406 9.238281 -27.53125 L 8.675781 -26.683594 L 7.824219 -24.984375 C 7.730469 -24.703125 7.542969 -24.609375 7.261719 -24.609375 L 4.714844 -24.324219 C 3.582031 -24.324219 2.453125 -24.421875 1.320312 -24.515625 C 1.039062 -24.515625 0.753906 -24.609375 0.566406 -24.703125 C 0 -24.984375 -0.472656 -25.269531 -1.132812 -25.269531 C -1.414062 -25.269531 -1.695312 -25.269531 -1.792969 -25.082031 C -1.886719 -24.984375 -1.792969 -24.609375 -1.695312 -24.421875 L -1.132812 -23.007812 C -1.132812 -22.910156 -1.132812 -22.816406 -1.039062 -22.722656 C -0.566406 -22.347656 -0.09375 -21.875 0.378906 -21.496094 C 0.847656 -21.121094 1.414062 -20.835938 1.980469 -20.554688 C 2.261719 -20.367188 2.546875 -20.175781 2.828125 -20.082031 C 3.394531 -19.988281 3.960938 -19.800781 4.429688 -19.613281 C 4.808594 -19.421875 4.808594 -19.421875 4.621094 -19.046875 C 3.773438 -17.441406 2.921875 -15.839844 2.167969 -14.238281 L -0.660156 -8.296875 C -1.039062 -7.542969 -1.320312 -6.789062 -1.695312 -6.035156 C -1.980469 -5.46875 -2.261719 -4.902344 -2.453125 -4.335938 C -2.921875 -3.207031 -3.300781 -2.074219 -3.675781 -0.941406 L -4.527344 1.601562 L -5.089844 3.867188 L -5.089844 4.148438 C -5.1875 4.714844 -5.28125 5.28125 -5.28125 5.847656 C -5.28125 6.503906 -5.1875 7.164062 -5.089844 7.824219 C -5.089844 7.921875 -4.902344 8.015625 -4.808594 8.015625 C -4.808594 8.015625 -4.714844 7.824219 -4.714844 7.730469 C -4.621094 7.542969 -4.621094 7.355469 -4.527344 7.261719 C -4.242188 7.070312 -4.148438 6.789062 -4.054688 6.503906 C -4.054688 6.035156 -3.394531 5.46875 -3.015625 5.28125 C -2.640625 4.996094 -2.355469 4.714844 -2.355469 4.242188 L -2.355469 3.773438 C -2.355469 3.675781 -2.261719 3.675781 -2.167969 3.582031 C -2.167969 3.675781 -2.074219 3.773438 -2.074219 3.867188 C -2.074219 4.054688 -2.167969 4.242188 -2.261719 4.429688 C -2.167969 4.335938 -2.074219 4.148438 -1.980469 4.054688 C -1.414062 3.394531 -1.039062 2.640625 -0.660156 1.792969 C -0.566406 1.507812 -0.472656 1.132812 -0.09375 0.941406 C 0 0.847656 0 0.660156 0.09375 0.566406 C 0.1875 0.378906 0.09375 0.378906 0 0.378906 C -0.378906 0.28125 -0.378906 0.09375 -0.09375 -0.09375 C 0.09375 -0.1875 0.09375 -0.28125 0 -0.472656 L 0.660156 -2.074219 C 0.378906 -1.792969 0.28125 -1.601562 0.09375 -1.414062 L 0.09375 -1.980469 C 0.09375 -2.074219 0.09375 -2.074219 0.1875 -2.167969 C 0.660156 -2.453125 0.753906 -2.921875 0.472656 -3.394531 C 0.378906 -3.675781 0.378906 -3.773438 0.660156 -3.773438 L 1.132812 -3.773438 C 1.226562 -3.773438 1.226562 -3.867188 1.132812 -3.960938 C 1.039062 -4.054688 1.039062 -4.148438 0.941406 -4.242188 L 1.320312 -4.242188 C 0.941406 -4.527344 0.847656 -4.808594 1.132812 -5.089844 L 1.132812 -5.28125 C 1.039062 -5.5625 1.132812 -5.65625 1.414062 -5.65625 C 1.507812 -5.65625 1.601562 -5.65625 1.601562 -5.75 C 1.695312 -5.847656 2.074219 -5.941406 1.695312 -6.128906 C 1.695312 -6.128906 1.695312 -6.316406 1.792969 -6.410156 L 1.980469 -6.410156 C 2.074219 -6.316406 2.167969 -6.316406 2.167969 -6.503906 C 2.167969 -6.601562 2.167969 -6.789062 2.261719 -6.789062 C 2.546875 -6.882812 2.453125 -6.976562 2.261719 -7.164062 C 1.980469 -7.542969 2.734375 -7.730469 2.453125 -8.109375 C 2.453125 -8.109375 2.546875 -8.296875 2.640625 -8.296875 C 3.015625 -8.390625 3.015625 -8.675781 3.015625 -9.050781 C 3.015625 -9.238281 3.207031 -9.429688 3.300781 -9.617188 C 3.675781 -9.429688 3.582031 -9.898438 3.773438 -9.898438 L 3.773438 -9.996094 C 3.488281 -9.996094 3.488281 -10.089844 3.675781 -10.277344 C 3.867188 -10.464844 3.960938 -10.65625 4.054688 -10.84375 C 4.242188 -10.84375 3.960938 -10.371094 4.242188 -10.558594 C 4.527344 -10.75 4.808594 -11.03125 4.808594 -11.410156 L 4.808594 -11.691406 C 4.996094 -11.597656 5.089844 -11.503906 5.1875 -11.410156 C 4.996094 -11.691406 4.714844 -12.070312 4.808594 -12.351562 C 4.902344 -12.632812 4.808594 -13.105469 5.1875 -13.390625 L 5.1875 -12.917969 C 5.375 -13.105469 5.5625 -13.199219 5.75 -13.292969 C 5.941406 -13.484375 5.941406 -13.671875 5.75 -13.859375 C 5.46875 -14.144531 5.5625 -13.578125 5.375 -13.671875 C 5.375 -13.953125 5.375 -14.238281 5.75 -14.238281 C 6.316406 -14.238281 6.410156 -14.332031 6.601562 -14.898438 L 6.316406 -14.613281 C 6.410156 -14.898438 6.035156 -15.085938 6.316406 -15.367188 C 6.503906 -15.558594 6.035156 -15.933594 6.503906 -16.125 L 6.503906 -15.839844 C 6.601562 -16.125 6.601562 -16.40625 6.976562 -16.40625 C 7.070312 -16.40625 7.164062 -16.59375 7.164062 -16.78125 C 7.164062 -16.972656 7.355469 -17.160156 7.449219 -17.347656 C 7.449219 -17.347656 7.636719 -17.253906 7.730469 -17.253906 C 7.824219 -17.347656 8.015625 -17.441406 8.015625 -17.539062 C 8.109375 -17.820312 8.296875 -17.820312 8.484375 -17.820312 C 8.582031 -17.820312 8.675781 -17.914062 8.769531 -18.007812 L 8.484375 -18.007812 C 8.203125 -18.101562 8.109375 -18.101562 8.296875 -18.480469 C 8.582031 -18.953125 8.957031 -19.328125 9.238281 -19.800781 C 9.523438 -20.273438 10.089844 -20.082031 10.464844 -20.367188 L 10.558594 -20.273438 C 10.65625 -20.082031 10.65625 -20.175781 10.75 -20.273438 C 10.9375 -20.460938 11.125 -20.742188 11.410156 -20.835938 C 13.105469 -21.875 15.464844 -22.347656 17.441406 -22.628906 C 18.292969 -22.816406 19.140625 -22.910156 19.988281 -23.007812 C 20.554688 -23.101562 21.121094 -23.101562 21.6875 -23.289062 C 23.007812 -23.667969 24.421875 -23.761719 25.742188 -23.949219 L 26.023438 -23.949219 C 26.023438 -23.855469 26.023438 -23.761719 25.929688 -23.667969 L 25.363281 -22.816406 C 24.042969 -20.742188 22.722656 -18.480469 21.589844 -16.21875 C 21.402344 -15.746094 21.214844 -15.273438 20.933594 -14.804688 C 20.082031 -13.292969 19.234375 -11.785156 18.480469 -10.277344 C 17.914062 -9.144531 17.441406 -7.921875 16.78125 -6.789062 C 15.933594 -5.1875 15.179688 -3.488281 14.519531 -1.792969 C 13.953125 -0.28125 13.292969 1.132812 12.632812 2.640625 C 10.464844 7.164062 8.484375 11.878906 7.164062 16.6875 L 7.164062 16.972656 C 7.164062 17.066406 7.261719 17.160156 7.261719 17.253906 C 7.355469 17.253906 7.542969 17.253906 7.636719 17.160156 C 8.015625 16.6875 8.484375 16.3125 8.675781 15.839844 C 9.144531 14.613281 9.710938 13.484375 10.277344 12.351562 L 10.558594 12.070312 C 10.65625 11.972656 10.75 11.878906 10.75 11.785156 C 11.03125 10.9375 11.503906 10.183594 11.972656 9.335938 Z M -1.792969 1.039062 L -1.792969 0.847656 L -1.226562 -0.566406 C -1.039062 0 -1.320312 0.472656 -1.601562 0.941406 L -1.601562 1.132812 L -1.695312 1.226562 C -1.792969 1.226562 -1.792969 1.132812 -1.792969 1.039062 Z M 1.414062 -3.582031 L 1.226562 -3.582031 C 0.941406 -3.113281 0.566406 -2.734375 0.566406 -2.167969 Z M 1.414062 -3.582031 "/></g></g></g><g fill="#f5f5f5" fill-opacity="1"><g transform="translate(48.732412, 62.198766)"><g><path d="M -0.566406 2.355469 L -0.28125 2.640625 C -0.09375 2.828125 -0.09375 2.828125 0.1875 2.734375 C 0.566406 2.640625 0.753906 2.355469 0.941406 1.980469 C 1.132812 1.507812 1.320312 1.039062 1.695312 0.660156 C 1.886719 0.472656 2.167969 0.28125 2.261719 0 C 2.261719 -0.09375 2.355469 -0.1875 2.453125 -0.28125 C 2.546875 -0.378906 2.640625 -0.378906 2.640625 -0.472656 C 2.828125 -0.941406 3.867188 -2.355469 4.242188 -2.640625 C 4.621094 -3.015625 4.902344 -3.488281 5.28125 -3.867188 C 5.65625 -4.148438 5.847656 -4.621094 6.222656 -4.902344 C 6.222656 -5.1875 6.503906 -5.1875 6.695312 -5.28125 C 6.976562 -5.375 7.261719 -5.5625 7.636719 -5.65625 C 8.109375 -5.75 8.484375 -6.128906 8.957031 -6.035156 C 9.429688 -6.410156 9.996094 -6.503906 10.464844 -6.695312 C 10.65625 -6.789062 10.84375 -6.882812 11.03125 -7.070312 C 11.125 -7.261719 11.316406 -7.355469 11.503906 -7.355469 C 11.878906 -7.449219 12.164062 -7.636719 12.539062 -7.730469 C 12.824219 -7.824219 13.105469 -8.015625 13.390625 -8.203125 C 13.484375 -8.296875 13.578125 -8.390625 13.671875 -8.390625 C 13.953125 -8.390625 14.238281 -8.582031 14.519531 -8.675781 L 15.367188 -8.957031 C 15.839844 -9.050781 16.5 -9.238281 16.972656 -9.238281 L 16.972656 -8.957031 C 16.78125 -8.675781 16.6875 -8.296875 16.59375 -8.015625 L 16.027344 -6.601562 C 15.933594 -6.222656 15.933594 -5.847656 15.839844 -5.46875 C 15.652344 -5.089844 15.273438 -4.335938 15.273438 -3.867188 C 15.273438 -3.773438 15.179688 -3.582031 15.085938 -3.488281 C 14.992188 -3.394531 14.992188 -3.207031 14.992188 -3.015625 C 14.898438 -2.734375 14.804688 -2.546875 14.707031 -2.261719 C 14.519531 -1.507812 14.238281 -0.472656 13.953125 0.28125 C 13.859375 0.566406 13.765625 0.847656 13.765625 1.132812 C 13.765625 1.414062 13.484375 1.601562 13.578125 1.980469 C 13.390625 2.261719 13.390625 2.640625 13.292969 2.921875 L 13.011719 4.335938 C 12.824219 4.996094 12.632812 5.65625 12.351562 6.316406 L 12.070312 6.882812 C 11.972656 7.355469 11.972656 7.824219 11.878906 8.296875 L 11.878906 8.582031 L 11.597656 9.710938 C 11.503906 10.183594 11.410156 10.65625 11.410156 11.21875 C 11.410156 11.316406 11.316406 11.410156 11.316406 11.503906 C 11.21875 11.878906 11.03125 12.257812 11.03125 12.632812 L 11.03125 12.917969 C 10.84375 13.199219 10.84375 13.484375 10.84375 13.765625 C 10.84375 13.859375 10.84375 13.953125 10.75 14.046875 C 10.65625 14.144531 10.558594 15.558594 10.558594 15.746094 C 11.03125 16.027344 11.503906 16.125 11.972656 16.125 C 11.972656 15.933594 11.878906 15.746094 11.972656 15.652344 C 12.164062 15.367188 12.164062 14.992188 12.164062 14.613281 L 11.878906 14.898438 L 11.597656 14.613281 L 11.316406 14.898438 L 11.03125 14.613281 L 11.03125 14.425781 C 11.125 14.332031 11.125 14.238281 11.125 14.144531 L 10.84375 14.144531 C 10.9375 14.046875 10.9375 13.765625 11.03125 13.671875 C 11.125 13.578125 11.125 13.578125 11.316406 13.578125 L 11.316406 13.011719 L 11.597656 12.730469 C 11.597656 12.257812 11.597656 12.164062 11.785156 12.164062 L 12.070312 12.164062 L 12.070312 12.539062 C 12.351562 12.070312 12.730469 11.785156 12.824219 11.21875 C 12.824219 11.125 13.011719 11.03125 13.105469 10.9375 C 13.011719 10.65625 13.105469 10.371094 13.292969 10.089844 C 13.390625 9.996094 13.390625 9.898438 13.390625 9.804688 L 13.390625 9.144531 L 13.199219 9.144531 C 13.292969 9.050781 13.390625 8.957031 13.390625 8.863281 C 13.484375 8.769531 13.390625 8.582031 13.484375 8.390625 C 13.578125 8.296875 13.578125 8.109375 13.578125 7.921875 C 13.578125 7.730469 13.671875 7.730469 13.765625 7.636719 C 13.859375 7.542969 13.859375 7.355469 13.859375 7.261719 C 13.859375 7.164062 13.765625 7.070312 13.765625 6.976562 C 14.332031 6.789062 14.238281 6.222656 14.613281 5.941406 C 14.519531 5.75 14.425781 5.5625 14.144531 5.65625 L 14.144531 5.375 C 14.332031 5.375 14.519531 5.375 14.804688 5.46875 C 14.613281 5.089844 14.898438 4.996094 14.992188 4.808594 L 14.992188 4.621094 L 14.707031 4.335938 C 14.992188 4.429688 14.992188 4.148438 15.179688 4.054688 C 15.367188 3.867188 15.179688 3.582031 15.273438 3.394531 L 15.839844 2.546875 L 16.125 2.546875 C 16.21875 2.355469 16.125 2.261719 15.839844 2.261719 L 16.125 1.980469 C 16.027344 1.695312 16.027344 1.414062 16.125 1.132812 L 16.40625 1.132812 C 16.40625 0.941406 16.5 0.753906 16.21875 0.566406 C 16.6875 0.566406 16.59375 0.09375 16.878906 -0.09375 C 16.59375 -0.472656 16.59375 -0.660156 16.878906 -0.941406 C 16.972656 -0.847656 17.066406 -0.753906 17.160156 -0.566406 C 17.253906 -0.847656 17.253906 -1.132812 17.347656 -1.320312 C 17.441406 -1.507812 17.441406 -1.792969 17.726562 -1.886719 C 17.632812 -1.980469 17.539062 -2.074219 17.441406 -2.261719 C 17.632812 -2.261719 17.820312 -2.167969 17.820312 -2.453125 C 18.199219 -2.734375 18.101562 -3.300781 18.386719 -3.675781 C 18.199219 -3.773438 18.101562 -3.867188 18.199219 -4.054688 C 18.199219 -4.148438 18.199219 -4.335938 18.386719 -4.148438 C 18.574219 -4.242188 18.667969 -4.429688 18.667969 -4.621094 C 18.761719 -5.089844 19.046875 -5.5625 19.234375 -6.035156 C 19.328125 -6.222656 19.421875 -6.316406 19.421875 -6.503906 C 19.421875 -6.601562 19.421875 -6.695312 19.515625 -6.789062 C 19.613281 -6.789062 19.613281 -6.882812 19.613281 -6.976562 C 19.613281 -7.355469 19.800781 -7.636719 19.988281 -7.921875 C 20.367188 -8.582031 20.554688 -9.335938 20.835938 -10.089844 C 20.742188 -10.371094 20.933594 -10.558594 21.214844 -10.65625 C 21.6875 -10.65625 22.441406 -10.84375 22.910156 -10.9375 C 23.195312 -11.03125 23.476562 -11.125 23.667969 -11.316406 L 23.855469 -11.503906 C 23.761719 -11.878906 23.667969 -12.164062 23.570312 -12.445312 C 23.476562 -12.632812 23.382812 -12.632812 23.195312 -12.539062 L 22.910156 -12.539062 C 22.535156 -12.539062 22.15625 -12.351562 21.78125 -12.257812 L 21.589844 -12.445312 C 21.78125 -12.824219 21.875 -13.292969 22.15625 -13.671875 C 22.25 -13.859375 22.347656 -14.144531 22.441406 -14.425781 C 22.535156 -14.613281 22.535156 -14.804688 22.535156 -14.992188 C 22.816406 -15.085938 22.722656 -15.367188 22.816406 -15.558594 C 23.007812 -15.746094 23.101562 -16.027344 23.195312 -16.21875 C 23.382812 -16.5 23.382812 -16.878906 23.570312 -17.160156 C 23.855469 -17.539062 23.949219 -17.914062 24.042969 -18.292969 C 24.230469 -18.761719 24.230469 -19.234375 24.609375 -19.515625 C 24.609375 -19.613281 25.269531 -20.933594 25.363281 -21.027344 C 25.269531 -21.496094 25.644531 -21.78125 25.742188 -22.15625 L 26.023438 -22.722656 C 26.496094 -23.855469 27.058594 -24.890625 27.910156 -25.835938 C 28.003906 -25.929688 28.003906 -26.023438 28.003906 -26.117188 C 28.003906 -26.402344 28.003906 -26.683594 28.191406 -26.871094 C 28.378906 -27.058594 28.476562 -27.25 28.476562 -27.4375 L 28.476562 -28.003906 C 28.476562 -28.097656 28.476562 -28.191406 28.570312 -28.191406 C 28.757812 -28.285156 28.757812 -28.476562 28.757812 -28.664062 C 28.757812 -29.039062 28.664062 -29.417969 28.851562 -29.792969 C 28.945312 -29.984375 28.945312 -30.078125 28.851562 -30.265625 L 28.945312 -30.453125 C 28.664062 -31.019531 28.285156 -31.210938 27.71875 -31.210938 C 27.625 -31.210938 27.53125 -31.210938 27.4375 -31.304688 C 27.34375 -31.398438 27.25 -31.398438 27.15625 -31.398438 C 26.589844 -31.398438 25.929688 -30.078125 25.742188 -29.699219 C 25.742188 -29.605469 25.644531 -29.605469 25.644531 -29.511719 C 25.269531 -28.945312 24.796875 -28.378906 24.515625 -27.71875 L 23.949219 -26.589844 C 23.949219 -26.496094 23.855469 -26.496094 23.761719 -26.496094 C 23.476562 -27.058594 23.195312 -27.53125 22.628906 -27.816406 C 22.441406 -27.625 22.25 -27.4375 22.0625 -27.34375 L 21.78125 -27.058594 C 21.589844 -26.871094 21.496094 -26.683594 21.308594 -26.496094 C 20.835938 -26.023438 20.460938 -25.457031 19.988281 -24.984375 C 19.800781 -24.703125 19.707031 -24.421875 19.328125 -24.230469 C 19.046875 -24.042969 18.859375 -23.667969 18.574219 -23.382812 C 18.386719 -23.195312 18.292969 -23.007812 18.007812 -22.910156 C 17.914062 -22.910156 17.914062 -22.816406 17.914062 -22.722656 L 15.652344 -20.460938 C 15.367188 -20.175781 14.992188 -19.707031 14.804688 -19.421875 L 12.539062 -17.160156 L 12.445312 -17.160156 C 12.445312 -16.878906 12.257812 -16.78125 12.164062 -16.59375 L 11.878906 -16.027344 C 11.691406 -15.746094 11.410156 -15.558594 11.21875 -15.273438 C 10.75 -14.425781 10.089844 -13.765625 9.523438 -13.011719 C 9.144531 -12.445312 8.675781 -11.972656 8.296875 -11.410156 C 7.921875 -10.9375 7.542969 -10.464844 7.164062 -10.089844 C 7.070312 -9.996094 6.976562 -9.804688 6.882812 -9.617188 C 6.789062 -9.335938 6.410156 -9.238281 6.316406 -8.957031 C 6.316406 -8.863281 6.035156 -8.863281 5.847656 -8.863281 L 5.1875 -8.863281 C 5.089844 -8.769531 4.996094 -8.769531 4.902344 -8.769531 C 4.808594 -8.769531 4.621094 -8.863281 4.527344 -8.769531 C 4.429688 -8.675781 4.242188 -8.675781 4.148438 -8.675781 L 3.394531 -8.675781 C 3.300781 -8.582031 3.113281 -8.582031 3.015625 -8.582031 C 2.734375 -8.582031 2.546875 -8.675781 2.261719 -8.769531 C 2.074219 -8.863281 1.980469 -8.863281 1.886719 -8.769531 C 1.792969 -8.675781 1.695312 -8.582031 1.792969 -8.390625 L 1.792969 -8.109375 C 1.695312 -7.636719 1.980469 -7.261719 2.167969 -6.882812 C 2.355469 -6.695312 2.546875 -6.503906 2.640625 -6.222656 C 2.734375 -5.941406 3.113281 -6.035156 3.300781 -5.847656 C 3.488281 -5.65625 3.488281 -5.46875 3.300781 -5.1875 C 3.113281 -4.902344 2.828125 -4.714844 2.734375 -4.335938 C 2.734375 -4.242188 2.734375 -4.148438 2.640625 -4.054688 C 2.261719 -3.582031 1.980469 -3.015625 1.695312 -2.453125 L 0.847656 -1.039062 C 0.566406 -0.660156 0.378906 -0.28125 0.09375 0.09375 C -0.378906 0.753906 -0.753906 1.507812 -0.566406 2.355469 Z M 11.410156 -11.21875 L 12.257812 -11.972656 C 12.351562 -12.070312 12.539062 -12.164062 12.632812 -12.351562 C 12.730469 -12.539062 12.917969 -12.632812 13.105469 -12.730469 C 13.292969 -12.917969 13.484375 -13.105469 13.578125 -13.390625 C 13.765625 -13.859375 14.238281 -14.332031 14.613281 -14.613281 L 14.707031 -14.613281 C 14.992188 -14.992188 15.367188 -15.367188 15.839844 -15.652344 C 16.027344 -16.027344 16.40625 -16.21875 16.6875 -16.5 C 17.066406 -16.878906 17.632812 -17.160156 17.820312 -17.726562 C 18.101562 -17.914062 18.292969 -18.199219 18.574219 -18.386719 L 19.421875 -19.234375 C 19.515625 -19.328125 19.613281 -19.515625 19.800781 -19.515625 C 19.894531 -19.515625 19.988281 -19.613281 20.082031 -19.707031 L 20.082031 -19.988281 L 20.367188 -20.273438 C 20.273438 -19.988281 20.273438 -19.707031 20.175781 -19.421875 L 19.234375 -17.253906 C 19.046875 -16.59375 18.761719 -15.933594 18.574219 -15.273438 C 18.480469 -15.085938 18.480469 -14.898438 18.480469 -14.707031 C 18.480469 -14.613281 18.480469 -14.425781 18.386719 -14.332031 C 18.292969 -14.046875 18.386719 -13.765625 18.199219 -13.484375 C 18.101562 -13.199219 18.101562 -12.917969 18.007812 -12.632812 C 17.914062 -12.351562 17.820312 -11.972656 17.726562 -11.691406 C 17.632812 -11.410156 17.441406 -11.316406 17.253906 -11.316406 C 16.878906 -11.316406 16.5 -11.21875 16.125 -11.125 C 15.933594 -11.03125 15.746094 -11.03125 15.558594 -11.03125 L 14.425781 -11.03125 C 14.046875 -11.03125 13.671875 -10.9375 13.292969 -10.84375 C 13.105469 -10.84375 12.917969 -10.75 12.730469 -10.75 L 12.539062 -10.75 C 12.257812 -10.75 11.972656 -10.65625 11.785156 -10.65625 C 11.597656 -10.464844 11.410156 -10.558594 11.21875 -10.558594 C 11.03125 -10.84375 11.21875 -11.125 11.410156 -11.21875 Z M 11.410156 -11.21875 "/></g></g></g><g fill="#f5f5f5" fill-opacity="1"><g transform="translate(75.198277, 77.766252)"><g><path d="M 34.003906 -54.117188 C 34.003906 -54.207031 34.097656 -54.390625 34.1875 -54.574219 L 34.644531 -55.210938 C 35.375 -56.402344 36.199219 -58.046875 36.5625 -59.601562 C 36.929688 -61.0625 35.832031 -62.707031 34.097656 -63.4375 C 33.273438 -63.804688 32.816406 -63.894531 32.726562 -63.804688 L 32.359375 -63.894531 C 31.8125 -64.171875 31.261719 -64.261719 30.621094 -64.261719 C 29.34375 -64.261719 28.246094 -61.609375 27.972656 -60.605469 L 27.242188 -57.679688 C 27.148438 -57.589844 27.148438 -57.40625 27.058594 -57.132812 C 26.964844 -56.859375 26.691406 -56.402344 26.417969 -55.761719 L 25.777344 -54.574219 L 21.390625 -42.140625 C 21.296875 -41.867188 21.117188 -41.59375 21.023438 -41.316406 C 20.839844 -40.679688 20.660156 -40.039062 20.382812 -39.488281 C 20.109375 -38.851562 19.925781 -38.300781 19.746094 -37.753906 C 19.46875 -37.113281 19.289062 -36.5625 19.011719 -36.105469 C 18.738281 -35.558594 18.554688 -35.101562 18.464844 -34.734375 C 18.28125 -34.277344 18.097656 -34.003906 18.007812 -33.730469 C 17.550781 -32.726562 16.089844 -29.800781 14.625 -26.234375 C 13.070312 -22.667969 11.425781 -18.921875 10.605469 -16.726562 C 9.78125 -14.535156 9.050781 -12.707031 8.410156 -11.242188 C 8.136719 -10.421875 7.953125 -9.871094 7.679688 -9.414062 C 7.585938 -9.140625 7.496094 -8.957031 7.402344 -8.867188 L 7.222656 -8.59375 C 7.222656 -8.59375 7.128906 -8.5 7.039062 -8.226562 C 6.945312 -7.769531 6.765625 -7.222656 6.308594 -6.398438 C 6.03125 -5.941406 5.941406 -5.484375 5.851562 -5.210938 C 5.757812 -4.9375 5.667969 -4.480469 5.394531 -4.023438 C 5.117188 -3.566406 5.027344 -3.199219 4.9375 -2.832031 C 4.296875 -1.371094 4.203125 -1.097656 3.839844 -0.457031 C 3.65625 -0.183594 3.746094 0.367188 4.113281 1.097656 C 4.570312 1.828125 5.210938 2.46875 6.03125 3.109375 C 7.769531 4.480469 7.769531 4.480469 9.507812 4.570312 C 11.242188 4.660156 11.519531 3.472656 12.15625 1.738281 C 12.25 1.460938 12.613281 0.273438 12.796875 0.0898438 C 12.890625 0 13.070312 -0.273438 13.164062 -0.546875 C 13.253906 -0.824219 13.4375 -1.1875 13.710938 -1.644531 C 14.441406 -3.382812 14.71875 -4.203125 15.082031 -5.394531 C 15.175781 -5.667969 15.175781 -6.03125 15.265625 -6.308594 L 15.539062 -7.222656 C 15.632812 -7.3125 15.632812 -7.496094 15.632812 -7.679688 C 15.632812 -7.769531 15.632812 -7.953125 15.722656 -8.042969 L 15.90625 -8.777344 C 15.90625 -8.867188 15.90625 -8.957031 15.996094 -9.050781 L 15.996094 -9.234375 C 15.996094 -9.324219 15.996094 -9.324219 16.089844 -9.414062 C 16.179688 -9.507812 16.363281 -9.78125 16.453125 -10.238281 C 16.546875 -10.328125 16.636719 -10.511719 16.726562 -10.785156 L 19.925781 -18.648438 C 20.019531 -19.105469 20.203125 -19.46875 20.382812 -19.835938 C 20.566406 -20.203125 20.75 -20.566406 20.839844 -21.023438 C 21.117188 -21.753906 21.480469 -22.667969 21.9375 -23.675781 C 22.304688 -24.679688 22.667969 -25.6875 23.128906 -26.601562 C 23.492188 -27.515625 23.675781 -27.972656 23.675781 -28.0625 C 23.675781 -28.15625 23.675781 -28.246094 23.765625 -28.429688 C 23.859375 -28.519531 23.859375 -28.703125 23.949219 -28.886719 C 23.949219 -28.976562 24.042969 -29.160156 24.132812 -29.433594 C 24.222656 -29.890625 24.316406 -30.257812 24.589844 -30.714844 L 25.6875 -33.457031 C 25.960938 -33.914062 26.050781 -34.371094 26.144531 -34.644531 C 26.417969 -35.46875 26.601562 -35.832031 26.691406 -35.832031 L 29.433594 -42.507812 C 29.707031 -43.144531 29.984375 -43.878906 30.257812 -44.699219 L 31.992188 -48.996094 C 32.449219 -50.367188 32.90625 -51.464844 33.273438 -52.46875 L 33.546875 -53.109375 C 33.640625 -53.203125 33.640625 -53.382812 33.730469 -53.476562 Z M 34.003906 -54.117188 "/></g></g></g><g fill="#f5f5f5" fill-opacity="1"><g transform="translate(111.344067, 63.526083)"><g><path d="M -1.792969 6.628906 C -1.074219 7.523438 -0.269531 8.238281 0.984375 8.328125 C 1.523438 8.417969 2.058594 8.417969 2.597656 8.417969 C 3.042969 8.417969 3.492188 8.328125 3.941406 8.238281 C 7.613281 6.984375 10.476562 6.089844 13.433594 3.132812 C 13.96875 2.597656 14.417969 1.878906 15.046875 1.433594 L 15.046875 1.34375 C 15.492188 0.714844 16.03125 0.0898438 16.476562 -0.539062 C 16.566406 -0.625 16.65625 -0.804688 16.746094 -0.984375 C 17.015625 -1.433594 17.285156 -1.878906 17.640625 -2.328125 L 18.984375 -3.941406 C 19.253906 -4.296875 19.433594 -4.65625 19.703125 -5.015625 C 20.058594 -5.464844 20.507812 -5.820312 20.867188 -6.269531 C 21.402344 -6.984375 21.851562 -7.703125 22.300781 -8.507812 C 22.746094 -9.222656 23.730469 -9.671875 23.554688 -10.746094 C 23.554688 -10.835938 23.820312 -11.015625 23.910156 -11.195312 C 24.089844 -11.464844 24.359375 -11.730469 24.539062 -12 C 24.71875 -12.179688 24.808594 -12.449219 24.984375 -12.71875 C 25.433594 -13.253906 25.792969 -13.882812 26.0625 -14.507812 C 26.238281 -15.046875 26.328125 -15.671875 27.046875 -15.941406 C 27.402344 -16.121094 27.582031 -16.746094 27.761719 -17.195312 C 27.851562 -17.285156 27.761719 -17.464844 27.761719 -17.554688 L 28.210938 -17.554688 C 28.566406 -18.359375 28.925781 -19.074219 29.285156 -19.882812 C 29.375 -19.972656 29.644531 -20.148438 29.734375 -20.328125 C 29.910156 -20.597656 29.910156 -20.957031 30.089844 -21.226562 C 30.359375 -21.671875 30.71875 -22.121094 30.984375 -22.566406 C 31.164062 -22.925781 31.433594 -23.375 31.34375 -23.730469 C 31.253906 -24.179688 31.433594 -24.179688 31.703125 -24.269531 L 31.972656 -24.539062 L 31.703125 -25.074219 C 32.152344 -25.074219 32.0625 -25.433594 32.152344 -25.703125 C 32.238281 -25.882812 32.328125 -26.148438 32.507812 -26.238281 C 32.777344 -26.328125 33.046875 -26.597656 33.136719 -26.867188 C 33.316406 -27.402344 33.492188 -27.941406 33.761719 -28.480469 C 34.121094 -29.375 34.570312 -30.269531 34.925781 -31.164062 C 35.015625 -31.433594 34.925781 -31.792969 35.015625 -32.0625 C 35.195312 -32.867188 35.554688 -33.671875 35.105469 -34.570312 C 35.105469 -34.65625 35.195312 -34.746094 35.195312 -34.925781 L 35.375 -34.746094 C 35.375 -34.65625 35.285156 -34.65625 35.285156 -34.570312 L 35.464844 -34.65625 L 35.375 -34.746094 C 35.734375 -35.734375 35.554688 -36.71875 35.464844 -37.613281 C 35.375 -38.507812 35.285156 -39.492188 34.65625 -40.03125 C 34.570312 -40.480469 34.570312 -40.835938 34.480469 -41.195312 C 34.480469 -41.285156 34.210938 -41.285156 34.121094 -41.375 C 33.671875 -41.910156 33.316406 -42.449219 32.867188 -42.988281 C 32.238281 -43.703125 31.433594 -44.242188 30.539062 -44.417969 L 30.359375 -44.417969 C 30.179688 -44.417969 30 -44.417969 29.910156 -44.328125 C 29.464844 -44.152344 29.105469 -43.882812 28.65625 -43.703125 C 24.539062 -41.734375 20.328125 -38.957031 17.820312 -35.015625 C 17.285156 -34.121094 16.476562 -33.316406 15.671875 -32.507812 C 14.238281 -30.984375 12.628906 -29.554688 11.195312 -27.941406 C 4.476562 -20.867188 -2.6875 -10.121094 -3.761719 -0.0898438 C -4.121094 2.417969 -3.3125 4.65625 -1.792969 6.628906 Z M -0.449219 -0.804688 C -0.359375 -1.253906 -0.269531 -1.613281 -0.359375 -2.058594 L -0.359375 -2.328125 C 0.269531 -3.222656 0.269531 -4.386719 0.539062 -5.375 C 0.804688 -6.269531 1.34375 -6.984375 1.613281 -7.882812 C 1.703125 -8.148438 1.703125 -8.417969 1.792969 -8.6875 C 1.792969 -8.777344 1.96875 -8.867188 2.058594 -8.957031 C 2.148438 -9.132812 2.148438 -9.3125 2.238281 -9.402344 C 2.417969 -9.671875 2.597656 -9.851562 2.507812 -10.210938 C 2.417969 -10.566406 2.867188 -11.015625 3.132812 -11.375 C 3.582031 -11.910156 4.03125 -12.449219 4.121094 -13.164062 L 4.121094 -13.34375 C 4.566406 -13.613281 4.746094 -14.058594 4.925781 -14.507812 C 5.015625 -14.6875 5.375 -14.777344 5.550781 -14.957031 C 5.910156 -15.492188 6.179688 -16.121094 6.539062 -16.65625 C 6.984375 -17.285156 7.523438 -17.910156 7.96875 -18.539062 C 8.328125 -19.074219 8.777344 -19.523438 9.132812 -20.058594 C 9.222656 -20.148438 9.132812 -20.328125 9.132812 -20.507812 C 9.3125 -20.597656 9.582031 -20.6875 9.851562 -20.777344 C 9.761719 -20.867188 9.671875 -21.046875 9.582031 -21.136719 L 10.121094 -21.671875 L 10.121094 -21.761719 C 10.65625 -21.851562 10.65625 -22.476562 11.015625 -22.746094 C 11.195312 -22.835938 11.285156 -23.015625 11.464844 -23.015625 C 11.910156 -23.105469 12.179688 -23.285156 12 -23.644531 L 13.164062 -24.808594 C 13.253906 -24.808594 13.433594 -24.71875 13.613281 -24.71875 C 13.703125 -24.71875 13.703125 -24.984375 13.792969 -25.074219 C 13.792969 -25.164062 13.882812 -25.253906 13.96875 -25.34375 L 14.238281 -25.074219 C 14.417969 -25.433594 14.6875 -25.792969 14.957031 -26.238281 L 15.136719 -26.0625 C 15.582031 -26.597656 16.03125 -27.046875 16.476562 -27.582031 L 18.089844 -29.734375 C 18.179688 -29.820312 18.179688 -29.910156 18.269531 -30 C 18.808594 -30.71875 18.71875 -31.34375 18.179688 -31.972656 C 17.910156 -32.238281 18.089844 -32.417969 18.359375 -32.507812 C 18.894531 -32.867188 19.433594 -33.136719 19.882812 -33.671875 C 20.058594 -33.941406 20.507812 -33.941406 20.867188 -34.121094 C 21.492188 -34.390625 22.121094 -34.65625 22.746094 -35.015625 C 23.464844 -35.375 24.179688 -35.820312 24.894531 -36.179688 C 24.984375 -36.179688 25.074219 -36.179688 25.164062 -36.269531 C 25.792969 -37.164062 26.867188 -37.523438 27.671875 -38.242188 C 28.210938 -38.777344 28.835938 -39.226562 29.644531 -39.40625 C 29.734375 -39.40625 29.820312 -39.492188 29.910156 -39.582031 C 30.359375 -39.941406 30.808594 -40.300781 31.34375 -40.570312 C 31.433594 -40.570312 31.523438 -40.660156 31.523438 -40.660156 C 31.792969 -40.660156 31.972656 -40.390625 31.972656 -40.121094 C 32.0625 -39.136719 32.152344 -38.152344 31.882812 -37.164062 L 32.417969 -37.703125 C 32.0625 -36.449219 31.882812 -35.195312 31.613281 -33.941406 C 31.253906 -32.507812 30.898438 -30.984375 30.359375 -29.644531 C 30.269531 -29.285156 30.089844 -28.925781 29.910156 -28.65625 C 29.464844 -27.851562 29.015625 -27.136719 28.566406 -26.328125 C 28.480469 -26.238281 28.390625 -26.0625 28.390625 -25.972656 C 28.65625 -25.34375 28.121094 -24.984375 27.941406 -24.449219 C 27.851562 -24.089844 27.851562 -23.730469 27.671875 -23.464844 C 27.316406 -22.746094 26.957031 -22.03125 26.507812 -21.3125 C 24.894531 -18.628906 23.375 -15.941406 21.761719 -13.253906 C 21.046875 -12.089844 20.238281 -11.015625 19.523438 -9.941406 C 19.34375 -9.671875 19.253906 -9.3125 19.074219 -9.046875 C 18.808594 -8.6875 18.539062 -8.328125 18.179688 -8.058594 L 24.089844 -17.730469 L 23.820312 -17.730469 L 23.554688 -17.464844 L 21.671875 -14.238281 C 21.492188 -13.882812 21.226562 -13.523438 21.046875 -13.164062 C 16.210938 -5.820312 12.71875 -0.894531 6.089844 5.375 C 5.550781 5.910156 4.746094 6.179688 4.03125 6.539062 C 3.941406 6.628906 3.761719 6.628906 3.582031 6.628906 C 2.507812 6.539062 1.253906 5.550781 0.894531 4.566406 C 0.804688 4.386719 0.625 4.210938 0.539062 4.03125 C 0.359375 3.492188 0.269531 2.867188 -0.0898438 2.417969 C -0.269531 2.148438 -0.539062 1.878906 -0.625 1.523438 C -0.625 1.433594 -0.714844 1.34375 -0.714844 1.253906 C -0.625 0.539062 -0.625 -0.179688 -0.449219 -0.804688 Z M 34.480469 -37.074219 L 34.570312 -37.164062 C 34.65625 -37.253906 34.480469 -37.433594 34.480469 -37.613281 C 34.480469 -37.703125 34.570312 -37.792969 34.570312 -37.882812 C 34.65625 -37.882812 34.835938 -37.882812 34.835938 -37.792969 C 34.925781 -37.253906 34.925781 -36.71875 34.925781 -36.179688 C 34.390625 -36.359375 34.300781 -36.628906 34.480469 -37.074219 Z M 26.597656 -22.210938 L 27.136719 -23.554688 L 26.867188 -23.554688 L 26.328125 -22.210938 Z M 26.597656 -22.210938 "/></g></g></g><g fill="#f5f5f5" fill-opacity="1"><g transform="translate(139.462484, 63.526083)"><g><path d="M -5.640625 12.089844 C -5.195312 11.910156 -5.550781 12.359375 -5.375 12.449219 C -5.195312 12.089844 -4.925781 11.730469 -4.476562 11.820312 C -4.121094 11.820312 -3.941406 11.640625 -3.761719 11.375 C -3.402344 10.925781 -3.042969 10.566406 -2.6875 10.210938 C -1.96875 9.492188 -1.164062 8.777344 -0.449219 8.058594 C -0.359375 7.96875 -0.269531 7.792969 -0.269531 7.613281 C -0.359375 6.984375 -0.359375 6.894531 0.449219 6.804688 C 0.359375 7.074219 0.269531 7.34375 0.179688 7.703125 C 0.359375 7.613281 0.449219 7.523438 0.539062 7.433594 L 1.253906 6.714844 C 1.253906 6.714844 1.34375 6.804688 1.34375 6.894531 L 1.613281 6.628906 C 1.703125 6.539062 1.792969 6.539062 1.878906 6.539062 L 1.703125 6.449219 L 2.238281 6.179688 L 1.878906 6.179688 C 2.148438 5.820312 2.507812 5.464844 2.867188 5.105469 C 3.042969 4.835938 3.3125 4.835938 3.492188 4.65625 C 3.851562 4.210938 4.210938 3.761719 4.476562 3.3125 C 4.835938 2.867188 5.105469 2.328125 5.375 1.792969 C 5.910156 1.074219 6.449219 0.449219 6.894531 -0.269531 C 7.433594 -0.984375 7.882812 -1.792969 8.328125 -2.597656 C 8.597656 -2.957031 8.777344 -3.3125 9.046875 -3.671875 C 9.132812 -3.851562 9.3125 -4.03125 9.492188 -4.210938 C 9.761719 -4.566406 10.03125 -4.925781 10.300781 -5.375 C 10.476562 -5.640625 10.566406 -5.910156 10.65625 -6.269531 C 10.03125 -5.910156 9.402344 -5.464844 9.046875 -4.746094 L 8.507812 -3.671875 C 8.238281 -3.042969 7.882812 -2.507812 7.34375 -2.058594 C 6.984375 -1.703125 6.804688 -1.074219 6.539062 -0.625 L 3.851562 3.132812 C 3.671875 3.402344 3.492188 3.582031 3.3125 3.851562 C 3.132812 3.671875 3.042969 3.492188 2.957031 3.402344 C 3.132812 3.222656 3.402344 3.042969 3.582031 2.777344 C 3.671875 2.6875 3.582031 2.417969 3.582031 2.417969 C 3.3125 2.417969 3.402344 2.238281 3.492188 2.058594 C 3.582031 1.792969 3.671875 1.433594 3.851562 1.253906 C 3.941406 1.164062 4.296875 1.253906 4.566406 1.253906 L 4.566406 0.984375 C 4.210938 0.539062 4.296875 0.269531 4.835938 0.179688 C 4.925781 0.179688 5.015625 0 5.105469 -0.0898438 C 5.015625 -0.179688 4.925781 -0.269531 4.746094 -0.359375 C 4.835938 -0.449219 4.925781 -0.539062 5.015625 -0.539062 C 5.550781 -0.539062 5.550781 -0.894531 5.640625 -1.253906 C 5.640625 -1.433594 5.640625 -1.613281 5.730469 -1.703125 C 6.089844 -2.148438 6.539062 -2.597656 6.894531 -3.042969 C 6.984375 -3.132812 6.984375 -3.3125 7.074219 -3.402344 L 7.34375 -3.671875 C 7.164062 -4.121094 7.164062 -4.121094 7.613281 -4.210938 C 7.96875 -4.296875 8.238281 -4.386719 8.328125 -4.925781 C 8.417969 -5.285156 8.957031 -5.640625 9.222656 -6 C 9.3125 -5.910156 9.402344 -5.910156 9.492188 -5.910156 C 9.671875 -5.910156 10.121094 -7.164062 10.210938 -7.433594 C 10.386719 -7.703125 10.566406 -7.96875 10.65625 -8.238281 C 10.746094 -8.777344 11.015625 -9.132812 11.464844 -9.402344 L 11.730469 -9.671875 C 11.910156 -9.761719 12 -9.851562 12.089844 -9.941406 C 12.179688 -9.761719 12.359375 -9.582031 12.359375 -9.402344 C 12.359375 -9.222656 12.269531 -8.957031 12.179688 -8.777344 L 11.910156 -8.238281 C 11.820312 -8.238281 11.730469 -8.148438 11.640625 -8.148438 C 11.640625 -7.792969 11.730469 -7.433594 11.730469 -7.074219 C 11.820312 -7.433594 11.910156 -7.792969 12.089844 -8.238281 C 12.179688 -8.238281 12.179688 -8.238281 12.269531 -8.328125 C 12.359375 -8.507812 12.449219 -8.597656 12.539062 -8.597656 C 12.71875 -8.597656 12.804688 -8.417969 12.894531 -8.238281 L 13.433594 -7.164062 C 14.058594 -5.550781 14.597656 -3.941406 15.3125 -2.328125 C 15.851562 -1.164062 16.476562 0 17.015625 1.164062 L 18.628906 4.65625 L 22.925781 13.253906 C 23.644531 14.6875 23.910156 16.300781 25.164062 17.464844 C 25.792969 18.089844 26.148438 18.984375 26.6875 19.703125 C 27.046875 20.238281 27.492188 20.6875 27.941406 21.136719 C 27.941406 20.6875 27.851562 20.238281 27.851562 19.792969 C 27.851562 19.523438 27.582031 19.164062 28.121094 19.074219 L 28.121094 18.808594 C 28.121094 18.628906 28.03125 18.539062 28.03125 18.359375 C 27.761719 17.195312 27.492188 16.03125 27.136719 14.957031 C 26.867188 14.058594 26.417969 13.164062 26.238281 12.179688 C 26.148438 11.730469 25.253906 7.253906 25.253906 7.074219 C 25.164062 6.449219 24.894531 5.730469 24.628906 5.195312 C 24.089844 3.761719 23.285156 2.238281 22.476562 0.984375 C 22.121094 0.269531 21.761719 -0.449219 21.226562 -0.984375 C 20.777344 -1.523438 20.597656 -2.058594 20.507812 -2.6875 L 20.238281 -5.375 C 20.238281 -5.550781 20.148438 -5.730469 20.058594 -5.910156 L 19.523438 -6.984375 C 19.433594 -7.074219 19.34375 -7.253906 19.34375 -7.253906 C 19.253906 -7.253906 19.164062 -7.164062 19.164062 -7.164062 C 18.894531 -7.164062 18.894531 -7.433594 18.808594 -7.613281 C 18.628906 -8.148438 18.539062 -8.777344 18.269531 -9.222656 C 17.910156 -9.761719 17.820312 -10.386719 17.910156 -10.925781 C 18 -11.550781 17.820312 -12 17.464844 -12.449219 C 17.105469 -12.804688 17.105469 -13.164062 17.464844 -13.433594 C 17.820312 -13.703125 18.269531 -13.882812 18.449219 -14.328125 C 18.449219 -14.417969 18.539062 -14.507812 18.628906 -14.507812 C 19.074219 -14.777344 19.34375 -15.136719 19.523438 -15.671875 C 19.523438 -15.761719 19.703125 -15.941406 19.792969 -15.941406 C 20.148438 -15.941406 20.148438 -15.941406 20.058594 -16.300781 L 20.058594 -16.476562 C 20.328125 -16.746094 20.507812 -17.015625 20.777344 -17.285156 C 21.226562 -17.640625 21.671875 -18 22.121094 -18.269531 C 23.285156 -18.984375 24.449219 -19.613281 25.613281 -20.238281 C 25.703125 -20.238281 25.972656 -20.148438 25.972656 -20.058594 C 26.0625 -19.882812 26.148438 -19.792969 26.328125 -19.792969 C 26.6875 -19.792969 29.820312 -21.761719 30.539062 -22.300781 C 30.808594 -22.476562 30.984375 -22.746094 31.253906 -22.925781 C 32.238281 -23.554688 33.226562 -24.179688 34.300781 -24.71875 C 36.539062 -26.0625 38.957031 -27.226562 41.375 -28.300781 C 41.644531 -28.480469 42 -28.566406 42.269531 -28.746094 C 42.898438 -29.195312 43.523438 -29.554688 44.0625 -30.089844 C 44.417969 -30.449219 45.046875 -30.628906 45.582031 -30.898438 C 45.851562 -30.984375 46.121094 -31.164062 46.390625 -31.34375 L 45.582031 -31.433594 C 45.316406 -31.34375 45.046875 -31.34375 44.867188 -31.253906 L 42.988281 -30.449219 C 41.824219 -30 40.570312 -29.554688 39.40625 -29.105469 C 38.507812 -28.746094 37.703125 -28.300781 36.808594 -27.941406 C 36.179688 -27.671875 35.554688 -27.492188 34.925781 -27.226562 L 28.210938 -24.269531 C 28.03125 -24.179688 27.851562 -24 27.671875 -23.910156 C 26.597656 -23.375 25.523438 -22.925781 24.539062 -22.390625 C 24.089844 -22.210938 23.910156 -22.210938 23.464844 -22.210938 C 23.730469 -22.65625 23.910156 -23.105469 24.179688 -23.554688 L 26.328125 -26.777344 C 26.597656 -27.136719 26.6875 -27.492188 26.507812 -27.941406 L 26.507812 -27.136719 L 25.972656 -27.402344 C 25.792969 -26.957031 25.613281 -26.417969 25.34375 -25.972656 C 25.074219 -25.523438 24.808594 -25.074219 24.449219 -24.808594 C 24 -24.539062 23.820312 -24.179688 23.644531 -23.730469 C 23.554688 -23.644531 23.554688 -23.554688 23.464844 -23.464844 C 23.195312 -23.015625 22.746094 -22.65625 22.925781 -22.03125 C 22.925781 -21.941406 22.835938 -21.851562 22.746094 -21.851562 L 21.402344 -21.046875 C 20.957031 -20.777344 20.328125 -20.867188 19.972656 -20.417969 C 19.792969 -20.238281 19.523438 -20.148438 19.253906 -19.972656 C 19.164062 -20.148438 19.074219 -20.238281 18.984375 -20.417969 C 19.074219 -20.417969 19.074219 -20.507812 19.164062 -20.507812 L 18.984375 -20.6875 C 18.984375 -21.136719 19.253906 -21.582031 19.703125 -22.121094 C 19.882812 -22.300781 19.972656 -22.65625 20.238281 -22.65625 C 20.328125 -22.65625 20.507812 -22.65625 20.597656 -22.566406 C 20.6875 -23.105469 20.6875 -23.644531 21.046875 -24.089844 C 21.761719 -25.074219 22.390625 -26.148438 23.105469 -27.226562 C 23.464844 -27.761719 23.730469 -28.390625 24.359375 -28.746094 C 24.449219 -28.835938 24.539062 -29.015625 24.628906 -29.105469 C 24.984375 -29.820312 25.34375 -30.539062 25.792969 -31.34375 L 26.0625 -31.074219 L 26.597656 -31.882812 L 27.046875 -31.433594 L 28.390625 -33.046875 L 28.65625 -33.046875 L 28.65625 -32.777344 C 28.566406 -32.777344 28.390625 -32.777344 28.300781 -32.6875 L 28.300781 -32.597656 L 27.761719 -31.792969 C 27.761719 -31.703125 27.851562 -31.523438 27.941406 -31.523438 C 28.03125 -31.523438 28.210938 -31.613281 28.300781 -31.703125 L 28.65625 -32.507812 L 28.65625 -32.328125 C 28.390625 -32.0625 28.746094 -31.613281 28.390625 -31.34375 L 28.390625 -31.253906 C 28.835938 -30.984375 28.65625 -30.628906 28.566406 -30.269531 C 29.015625 -30.269531 28.925781 -30.628906 28.925781 -30.898438 C 28.925781 -31.164062 28.835938 -31.433594 29.105469 -31.433594 L 29.375 -31.433594 C 29.375 -31.433594 29.464844 -31.613281 29.554688 -31.703125 L 30.898438 -33.851562 C 31.164062 -34.300781 31.34375 -34.746094 31.613281 -35.105469 C 32.152344 -35.734375 32.597656 -36.359375 32.507812 -37.253906 C 32.507812 -37.703125 32.597656 -38.152344 32.507812 -38.597656 C 32.417969 -38.957031 32.238281 -39.226562 32.152344 -39.582031 C 31.703125 -40.746094 30.808594 -41.285156 29.554688 -41.375 C 29.105469 -41.464844 28.65625 -41.015625 28.65625 -40.570312 C 28.65625 -40.390625 28.65625 -40.210938 28.566406 -40.121094 C 27.941406 -39.40625 27.316406 -38.777344 26.777344 -38.0625 C 25.34375 -36.449219 23.910156 -34.480469 22.566406 -32.6875 C 21.671875 -31.433594 20.867188 -30.089844 19.972656 -28.746094 L 15.941406 -22.835938 C 15.222656 -21.761719 14.507812 -20.597656 13.703125 -19.523438 C 12.628906 -18 11.464844 -16.566406 10.386719 -15.046875 C 9.851562 -14.328125 8.867188 -14.058594 8.058594 -14.058594 C 7.253906 -13.96875 6.359375 -13.792969 5.550781 -13.792969 C 5.105469 -13.792969 4.746094 -13.792969 4.296875 -13.96875 L 4.121094 -13.96875 C 3.851562 -13.792969 3.492188 -13.613281 3.402344 -13.433594 C 3.3125 -13.164062 3.402344 -12.804688 3.761719 -12.71875 C 3.851562 -12.71875 4.03125 -12.628906 4.03125 -12.539062 C 4.03125 -12.089844 4.210938 -11.910156 4.65625 -11.910156 C 4.746094 -11.910156 4.835938 -11.820312 4.835938 -11.730469 C 4.925781 -11.285156 5.195312 -11.195312 5.550781 -11.195312 L 7.703125 -11.195312 C 7.433594 -10.746094 7.253906 -10.386719 7.074219 -10.03125 C 5.910156 -8.238281 4.746094 -6.449219 3.671875 -4.65625 C 3.042969 -3.671875 2.507812 -2.6875 1.878906 -1.703125 L -0.269531 1.792969 C -1.613281 3.941406 -2.957031 6.089844 -4.296875 8.328125 C -4.925781 9.402344 -5.375 10.566406 -5.640625 11.820312 Z M 21.582031 1.34375 C 21.582031 1.164062 21.582031 0.984375 21.492188 0.804688 L 21.851562 0.804688 L 21.582031 1.34375 C 22.03125 1.433594 22.300781 1.613281 22.121094 2.058594 C 22.121094 2.148438 22.210938 2.238281 22.300781 2.238281 C 23.015625 2.597656 23.375 3.3125 23.730469 3.941406 C 24 4.386719 24.089844 4.925781 24.269531 5.375 C 24.359375 5.464844 24.539062 5.550781 24.628906 5.640625 C 24.179688 5.640625 24 5.285156 23.820312 5.015625 L 23.554688 4.746094 L 23.554688 5.015625 C 23.554688 5.195312 23.644531 5.375 23.730469 5.550781 C 23.285156 5.375 23.105469 5.015625 23.105469 4.566406 C 23.105469 4.386719 23.015625 4.210938 22.925781 4.121094 C 22.65625 3.761719 22.300781 3.402344 22.03125 3.132812 C 22.210938 2.867188 22.476562 2.6875 22.476562 2.597656 C 22.390625 2.417969 22.121094 2.328125 21.941406 2.148438 C 21.761719 1.96875 21.582031 1.703125 21.582031 1.34375 Z M 20.148438 -6.804688 L 20.417969 -6.804688 L 19.613281 -9.492188 L 19.34375 -9.492188 Z M 15.671875 -19.164062 C 15.941406 -19.523438 16.300781 -19.882812 16.65625 -20.238281 L 15.851562 -18.894531 L 15.941406 -18.71875 C 15.941406 -18.628906 15.761719 -18.628906 15.671875 -18.628906 C 15.671875 -18.808594 15.582031 -19.074219 15.671875 -19.164062 Z M 26.777344 -28.390625 L 27.851562 -28.390625 C 27.671875 -28.65625 27.492188 -28.835938 27.402344 -29.015625 Z M 24.539062 5.820312 L 24.984375 7.074219 C 24.894531 6.984375 24.808594 6.894531 24.71875 6.714844 C 24.628906 6.628906 24.628906 6.449219 24.539062 6.449219 C 24 6.179688 24.359375 6 24.539062 5.820312 Z M 18.628906 -10.300781 C 18.71875 -10.121094 18.808594 -10.03125 18.894531 -10.03125 C 18.984375 -10.03125 19.164062 -10.121094 19.253906 -10.121094 C 19.164062 -10.300781 19.074219 -10.386719 18.984375 -10.476562 L 18.628906 -10.835938 C 18.628906 -10.65625 18.539062 -10.476562 18.628906 -10.300781 Z M 29.195312 -33.492188 L 29.375 -33.316406 L 28.925781 -32.867188 L 28.65625 -33.136719 L 28.65625 -33.226562 C 28.835938 -33.226562 29.015625 -33.492188 29.195312 -33.492188 Z M 27.492188 -29.820312 L 28.210938 -29.820312 C 27.941406 -30 27.761719 -30.089844 27.582031 -30.179688 C 27.492188 -30.179688 27.316406 -30.179688 27.226562 -30.089844 C 27.316406 -29.910156 27.402344 -29.820312 27.492188 -29.820312 Z M 18.359375 -20.148438 C 18.539062 -20.417969 18.71875 -20.597656 18.894531 -20.777344 L 18.984375 -20.6875 L 18.984375 -20.417969 C 18.894531 -20.328125 18.71875 -20.238281 18.628906 -20.148438 L 18.71875 -19.972656 C 18.628906 -19.972656 18.539062 -20.058594 18.359375 -20.148438 Z M 2.507812 4.476562 L 3.402344 4.476562 C 3.222656 4.65625 3.132812 4.746094 2.957031 4.746094 C 2.867188 4.746094 2.6875 4.65625 2.507812 4.476562 Z M 26.328125 -29.464844 L 26.597656 -30 L 26.507812 -30.179688 C 26.328125 -29.910156 26.238281 -29.734375 26.148438 -29.554688 C 26.148438 -29.554688 26.238281 -29.464844 26.328125 -29.464844 Z M 1.34375 6.269531 C 1.523438 6.179688 1.703125 6.179688 1.792969 6.179688 L 1.253906 6.714844 C 1.253906 6.539062 1.253906 6.359375 1.34375 6.269531 Z M 1.34375 6.269531 "/></g></g></g></svg>