<svg xmlns="http://www.w3.org/2000/svg" xmlns:xlink="http://www.w3.org/1999/xlink" width="500" zoomAndPan="magnify" viewBox="0 0 375 374.999991" height="500" preserveAspectRatio="xMidYMid meet" version="1.0"><defs><g/></defs><g fill="#000000" fill-opacity="1"><g transform="translate(50.667833, 151.176046)"><g><path d="M 23.351562 18.203125 L 24.453125 16.546875 C 25.191406 15.261719 26.109375 13.972656 26.84375 12.6875 L 29.601562 7.722656 C 29.785156 7.355469 29.785156 6.804688 29.972656 6.433594 L 31.074219 4.78125 C 31.808594 3.492188 32.359375 2.023438 33.648438 1.101562 C 33.832031 0.917969 33.832031 0.734375 33.832031 0.550781 C 34.566406 -0.917969 34.933594 -2.390625 36.222656 -3.492188 C 36.40625 -3.675781 36.40625 -3.859375 36.589844 -4.046875 C 37.507812 -5.699219 38.0625 -7.355469 39.164062 -8.824219 C 39.898438 -9.746094 40.636719 -10.664062 40.820312 -11.953125 C 42.289062 -13.789062 43.578125 -15.8125 44.679688 -17.835938 C 45.230469 -18.570312 45.601562 -19.488281 45.96875 -20.226562 C 47.253906 -22.433594 48.542969 -24.453125 49.828125 -26.660156 L 50.933594 -28.867188 C 51.300781 -29.601562 51.851562 -30.15625 52.21875 -30.890625 C 52.402344 -31.074219 52.402344 -31.257812 52.402344 -31.441406 C 52.21875 -32.175781 52.585938 -32.730469 52.953125 -33.097656 C 53.507812 -33.464844 54.058594 -33.832031 53.875 -34.566406 L 54.058594 -34.75 C 55.160156 -35.117188 55.527344 -36.222656 56.082031 -37.140625 C 56.265625 -37.324219 56.449219 -37.507812 56.632812 -37.507812 C 57.734375 -38.0625 58.46875 -39.164062 58.46875 -40.265625 C 57.183594 -39.714844 57 -38.0625 55.894531 -37.324219 C 56.449219 -38.429688 57 -39.347656 57.734375 -40.265625 C 58.285156 -41.1875 59.574219 -41.738281 59.574219 -43.027344 L 61.964844 -45.414062 C 61.597656 -45.96875 62.148438 -46.335938 62.332031 -46.703125 C 62.882812 -47.621094 63.617188 -48.359375 64.171875 -49.277344 C 64.539062 -49.828125 65.273438 -50.378906 64.722656 -51.117188 L 64.90625 -51.300781 C 65.273438 -51.117188 65.273438 -51.484375 65.457031 -51.667969 L 66.007812 -52.21875 C 66.5625 -52.585938 66.746094 -53.136719 66.929688 -53.691406 C 67.113281 -54.242188 67.296875 -54.976562 68.214844 -54.976562 C 68.582031 -54.976562 68.765625 -55.34375 68.765625 -55.710938 C 68.765625 -56.265625 68.949219 -56.816406 69.503906 -57.183594 C 69.6875 -57.183594 69.6875 -57.367188 69.6875 -57.550781 C 69.871094 -58.285156 70.421875 -58.839844 71.15625 -59.207031 C 71.339844 -59.207031 71.523438 -59.390625 71.523438 -59.574219 C 71.894531 -60.675781 73.363281 -60.859375 73.546875 -62.148438 C 73.546875 -62.148438 73.730469 -62.332031 73.914062 -62.332031 C 74.652344 -62.515625 74.835938 -63.066406 74.835938 -63.617188 C 74.835938 -63.800781 74.835938 -64.171875 75.019531 -64.355469 C 75.203125 -64.539062 75.570312 -64.539062 75.203125 -65.089844 C 75.019531 -65.273438 75.753906 -65.640625 76.121094 -65.457031 L 76.488281 -65.457031 C 76.671875 -65.640625 76.671875 -65.824219 76.671875 -66.007812 L 76.671875 -66.5625 L 77.226562 -66.007812 L 77.226562 -65.824219 C 78.144531 -66.5625 78.511719 -67.664062 78.878906 -68.582031 C 79.0625 -69.136719 79.0625 -69.503906 79.800781 -69.871094 C 80.351562 -70.054688 80.71875 -70.972656 80.902344 -71.710938 C 81.085938 -72.445312 81.269531 -72.996094 81.820312 -73.363281 C 82.375 -73.914062 82.925781 -74.46875 83.109375 -75.386719 C 83.109375 -75.570312 83.292969 -75.753906 83.476562 -75.9375 C 83.660156 -76.304688 84.027344 -76.671875 84.027344 -76.859375 C 84.027344 -77.960938 84.765625 -78.511719 85.316406 -79.246094 C 86.417969 -80.71875 86.601562 -83.660156 86.601562 -85.5 C 86.601562 -88.074219 85.5 -90.097656 83.84375 -91.933594 L 87.152344 -93.039062 C 86.96875 -93.222656 86.601562 -93.589844 86.234375 -93.589844 L 83.476562 -94.140625 C 82.558594 -94.324219 81.636719 -93.773438 81.269531 -93.039062 L 77.410156 -85.867188 C 77.042969 -85.316406 76.671875 -84.578125 76.304688 -84.027344 C 76.121094 -83.476562 75.753906 -82.925781 75.570312 -82.375 C 75.386719 -81.820312 74.652344 -81.636719 74.46875 -81.085938 C 74.46875 -80.535156 74.097656 -80.167969 73.730469 -79.984375 C 73.546875 -79.984375 73.363281 -79.800781 73.179688 -79.617188 L 68.765625 -71.894531 L 62.699219 -61.964844 L 61.597656 -59.757812 L 54.976562 -49.277344 C 54.609375 -48.726562 54.242188 -48.359375 53.507812 -48.359375 C 51.300781 -48.359375 49.09375 -48.171875 46.886719 -48.171875 L 42.472656 -48.171875 C 37.878906 -47.988281 33.28125 -47.621094 28.683594 -47.4375 C 27.949219 -47.4375 27.949219 -47.4375 28.132812 -48.171875 L 28.132812 -48.726562 C 27.949219 -48.726562 27.765625 -48.726562 27.582031 -48.542969 C 27.210938 -48.171875 27.027344 -47.804688 26.660156 -47.4375 C 26.476562 -47.253906 26.109375 -47.253906 26.109375 -47.804688 C 26.109375 -48.171875 26.109375 -48.171875 25.742188 -47.988281 C 25.742188 -47.988281 25.375 -48.171875 25.375 -48.359375 L 25.375 -48.910156 C 25.742188 -49.09375 25.925781 -49.644531 26.476562 -49.460938 L 26.660156 -49.828125 C 26.292969 -50.195312 26.476562 -50.378906 26.84375 -50.378906 C 27.398438 -50.5625 27.765625 -50.933594 27.582031 -51.300781 C 27.210938 -51.851562 27.398438 -51.851562 27.582031 -52.21875 C 27.949219 -52.585938 28.867188 -52.769531 28.132812 -53.507812 C 28.132812 -53.691406 28.316406 -54.058594 28.5 -54.242188 C 28.5 -54.425781 28.683594 -54.609375 28.683594 -54.792969 C 28.867188 -55.34375 29.050781 -55.527344 29.601562 -55.527344 C 29.785156 -55.527344 29.972656 -55.710938 29.972656 -55.710938 C 29.601562 -56.449219 30.15625 -56.816406 30.707031 -57.183594 C 30.890625 -57.367188 30.890625 -57.734375 31.074219 -57.917969 L 33.28125 -61.78125 C 32.730469 -59.574219 30.890625 -57.917969 30.339844 -55.710938 L 30.890625 -56.265625 C 31.257812 -56.816406 31.625 -57.367188 32.175781 -57.917969 C 32.542969 -58.285156 32.914062 -58.46875 33.28125 -58.839844 C 33.464844 -59.023438 33.648438 -59.390625 33.097656 -59.390625 C 32.730469 -59.390625 32.730469 -59.574219 32.914062 -59.757812 C 33.097656 -59.941406 33.28125 -60.125 33.464844 -60.125 C 34.382812 -60.492188 34.75 -61.414062 34.75 -62.332031 C 35.117188 -63.066406 35.855469 -63.617188 35.671875 -64.722656 C 35.671875 -65.089844 36.039062 -65.640625 36.40625 -65.824219 C 36.957031 -66.191406 37.140625 -66.746094 37.507812 -67.296875 C 38.0625 -68.582031 38.980469 -69.6875 39.714844 -70.789062 C 39.898438 -71.15625 40.265625 -71.523438 40.453125 -71.894531 C 40.636719 -72.445312 40.820312 -72.996094 41.371094 -73.363281 L 41.921875 -73.914062 L 42.472656 -75.019531 C 42.839844 -75.9375 43.394531 -76.859375 43.210938 -77.960938 C 43.210938 -78.328125 43.394531 -78.695312 43.578125 -79.0625 C 43.761719 -79.429688 44.128906 -79.800781 44.3125 -80.167969 C 44.863281 -82.003906 45.046875 -83.84375 45.230469 -85.683594 C 45.230469 -86.96875 45.230469 -88.257812 44.3125 -89.359375 C 43.945312 -89.726562 43.578125 -90.28125 43.210938 -90.648438 C 43.027344 -90.832031 42.65625 -91.015625 42.289062 -91.015625 L 41.738281 -91.015625 C 41.1875 -90.832031 40.636719 -90.832031 40.082031 -90.832031 C 39.53125 -90.832031 39.164062 -90.464844 38.796875 -89.914062 C 38.0625 -88.808594 37.324219 -87.523438 36.589844 -86.234375 C 36.40625 -85.867188 36.039062 -85.5 36.039062 -85.132812 C 35.855469 -84.210938 35.671875 -83.476562 34.75 -83.109375 C 34.566406 -83.109375 34.382812 -82.925781 34.382812 -82.742188 C 34.199219 -81.453125 33.464844 -80.351562 32.730469 -79.246094 C 31.992188 -78.144531 31.257812 -76.859375 30.707031 -75.570312 C 30.339844 -75.019531 30.15625 -74.285156 29.785156 -73.730469 C 29.785156 -73.546875 29.601562 -73.363281 29.417969 -73.363281 C 28.5 -72.8125 27.949219 -71.894531 27.765625 -70.972656 C 27.765625 -70.421875 27.765625 -69.871094 27.027344 -69.871094 L 26.84375 -69.503906 C 27.210938 -69.320312 26.84375 -69.136719 26.660156 -68.949219 L 25.007812 -65.640625 L 20.042969 -57.367188 C 19.304688 -56.265625 18.753906 -54.976562 18.019531 -53.691406 L 16.914062 -52.035156 L 15.261719 -48.726562 C 15.078125 -48.171875 14.710938 -47.988281 14.15625 -47.988281 L 9.195312 -47.4375 C 6.988281 -47.4375 4.78125 -47.621094 2.574219 -47.804688 C 2.023438 -47.804688 1.472656 -47.988281 1.101562 -48.171875 C 0 -48.726562 -0.917969 -49.277344 -2.207031 -49.277344 C -2.757812 -49.277344 -3.308594 -49.277344 -3.492188 -48.910156 C -3.675781 -48.726562 -3.492188 -47.988281 -3.308594 -47.621094 L -2.207031 -44.863281 C -2.207031 -44.679688 -2.207031 -44.496094 -2.023438 -44.3125 C -1.101562 -43.578125 -0.183594 -42.65625 0.734375 -41.921875 C 1.65625 -41.1875 2.757812 -40.636719 3.859375 -40.082031 C 4.414062 -39.714844 4.964844 -39.347656 5.515625 -39.164062 C 6.621094 -38.980469 7.722656 -38.613281 8.640625 -38.246094 C 9.378906 -37.878906 9.378906 -37.878906 9.007812 -37.140625 C 7.355469 -34.015625 5.699219 -30.890625 4.230469 -27.765625 L -1.285156 -16.179688 C -2.023438 -14.710938 -2.574219 -13.238281 -3.308594 -11.769531 C -3.859375 -10.664062 -4.414062 -9.5625 -4.78125 -8.457031 C -5.699219 -6.25 -6.433594 -4.046875 -7.171875 -1.839844 L -8.824219 3.125 L -9.929688 7.539062 L -9.929688 8.089844 C -10.113281 9.195312 -10.296875 10.296875 -10.296875 11.398438 C -10.296875 12.6875 -10.113281 13.972656 -9.929688 15.261719 C -9.929688 15.445312 -9.5625 15.628906 -9.378906 15.628906 C -9.378906 15.628906 -9.195312 15.261719 -9.195312 15.078125 C -9.007812 14.710938 -9.007812 14.34375 -8.824219 14.15625 C -8.273438 13.789062 -8.089844 13.238281 -7.90625 12.6875 C -7.90625 11.769531 -6.621094 10.664062 -5.882812 10.296875 C -5.148438 9.746094 -4.597656 9.195312 -4.597656 8.273438 L -4.597656 7.355469 C -4.597656 7.171875 -4.414062 7.171875 -4.230469 6.988281 C -4.230469 7.171875 -4.046875 7.355469 -4.046875 7.539062 C -4.046875 7.90625 -4.230469 8.273438 -4.414062 8.640625 C -4.230469 8.457031 -4.046875 8.089844 -3.859375 7.90625 C -2.757812 6.621094 -2.023438 5.148438 -1.285156 3.492188 C -1.101562 2.941406 -0.917969 2.207031 -0.183594 1.839844 C 0 1.65625 0 1.285156 0.183594 1.101562 C 0.367188 0.734375 0.183594 0.734375 0 0.734375 C -0.734375 0.550781 -0.734375 0.183594 -0.183594 -0.183594 C 0.183594 -0.367188 0.183594 -0.550781 0 -0.917969 L 1.285156 -4.046875 C 0.734375 -3.492188 0.550781 -3.125 0.183594 -2.757812 L 0.183594 -3.859375 C 0.183594 -4.046875 0.183594 -4.046875 0.367188 -4.230469 C 1.285156 -4.78125 1.472656 -5.699219 0.917969 -6.621094 C 0.734375 -7.171875 0.734375 -7.355469 1.285156 -7.355469 L 2.207031 -7.355469 C 2.390625 -7.355469 2.390625 -7.539062 2.207031 -7.722656 C 2.023438 -7.90625 2.023438 -8.089844 1.839844 -8.273438 L 2.574219 -8.273438 C 1.839844 -8.824219 1.65625 -9.378906 2.207031 -9.929688 L 2.207031 -10.296875 C 2.023438 -10.847656 2.207031 -11.03125 2.757812 -11.03125 C 2.941406 -11.03125 3.125 -11.03125 3.125 -11.214844 C 3.308594 -11.398438 4.046875 -11.582031 3.308594 -11.953125 C 3.308594 -11.953125 3.308594 -12.320312 3.492188 -12.503906 L 3.859375 -12.503906 C 4.046875 -12.320312 4.230469 -12.320312 4.230469 -12.6875 C 4.230469 -12.871094 4.230469 -13.238281 4.414062 -13.238281 C 4.964844 -13.421875 4.78125 -13.605469 4.414062 -13.972656 C 3.859375 -14.710938 5.332031 -15.078125 4.78125 -15.8125 C 4.78125 -15.8125 4.964844 -16.179688 5.148438 -16.179688 C 5.882812 -16.363281 5.882812 -16.914062 5.882812 -17.652344 C 5.882812 -18.019531 6.25 -18.386719 6.433594 -18.753906 C 7.171875 -18.386719 6.988281 -19.304688 7.355469 -19.304688 L 7.355469 -19.488281 C 6.804688 -19.488281 6.804688 -19.675781 7.171875 -20.042969 C 7.539062 -20.410156 7.722656 -20.777344 7.90625 -21.144531 C 8.273438 -21.144531 7.722656 -20.226562 8.273438 -20.59375 C 8.824219 -20.960938 9.378906 -21.511719 9.378906 -22.25 L 9.378906 -22.800781 C 9.746094 -22.617188 9.929688 -22.433594 10.113281 -22.25 C 9.746094 -22.800781 9.195312 -23.535156 9.378906 -24.085938 C 9.5625 -24.636719 9.378906 -25.558594 10.113281 -26.109375 L 10.113281 -25.191406 C 10.480469 -25.558594 10.847656 -25.742188 11.214844 -25.925781 C 11.582031 -26.292969 11.582031 -26.660156 11.214844 -27.027344 C 10.664062 -27.582031 10.847656 -26.476562 10.480469 -26.660156 C 10.480469 -27.210938 10.480469 -27.765625 11.214844 -27.765625 C 12.320312 -27.765625 12.503906 -27.949219 12.871094 -29.050781 L 12.320312 -28.5 C 12.503906 -29.050781 11.769531 -29.417969 12.320312 -29.972656 C 12.6875 -30.339844 11.769531 -31.074219 12.6875 -31.441406 L 12.6875 -30.890625 C 12.871094 -31.441406 12.871094 -31.992188 13.605469 -31.992188 C 13.789062 -31.992188 13.972656 -32.359375 13.972656 -32.730469 C 13.972656 -33.097656 14.34375 -33.464844 14.527344 -33.832031 C 14.527344 -33.832031 14.894531 -33.648438 15.078125 -33.648438 C 15.261719 -33.832031 15.628906 -34.015625 15.628906 -34.199219 C 15.8125 -34.75 16.179688 -34.75 16.546875 -34.75 C 16.730469 -34.75 16.914062 -34.933594 17.101562 -35.117188 L 16.546875 -35.117188 C 15.996094 -35.304688 15.8125 -35.304688 16.179688 -36.039062 C 16.730469 -36.957031 17.46875 -37.691406 18.019531 -38.613281 C 18.570312 -39.53125 19.675781 -39.164062 20.410156 -39.714844 L 20.59375 -39.53125 C 20.777344 -39.164062 20.777344 -39.347656 20.960938 -39.53125 C 21.328125 -39.898438 21.695312 -40.453125 22.25 -40.636719 C 25.558594 -42.65625 30.15625 -43.578125 34.015625 -44.128906 C 35.671875 -44.496094 37.324219 -44.679688 38.980469 -44.863281 C 40.082031 -45.046875 41.1875 -45.046875 42.289062 -45.414062 C 44.863281 -46.152344 47.621094 -46.335938 50.195312 -46.703125 L 50.746094 -46.703125 C 50.746094 -46.519531 50.746094 -46.335938 50.5625 -46.152344 L 49.460938 -44.496094 C 46.886719 -40.453125 44.3125 -36.039062 42.105469 -31.625 C 41.738281 -30.707031 41.371094 -29.785156 40.820312 -28.867188 C 39.164062 -25.925781 37.507812 -22.984375 36.039062 -20.042969 C 34.933594 -17.835938 34.015625 -15.445312 32.730469 -13.238281 C 31.074219 -10.113281 29.601562 -6.804688 28.316406 -3.492188 C 27.210938 -0.550781 25.925781 2.207031 24.636719 5.148438 C 20.410156 13.972656 16.546875 23.167969 13.972656 32.542969 L 13.972656 33.097656 C 13.972656 33.28125 14.15625 33.464844 14.15625 33.648438 C 14.34375 33.648438 14.710938 33.648438 14.894531 33.464844 C 15.628906 32.542969 16.546875 31.808594 16.914062 30.890625 C 17.835938 28.5 18.9375 26.292969 20.042969 24.085938 L 20.59375 23.535156 C 20.777344 23.351562 20.960938 23.167969 20.960938 22.984375 C 21.511719 21.328125 22.433594 19.859375 23.351562 18.203125 Z M -3.492188 2.023438 L -3.492188 1.65625 L -2.390625 -1.101562 C -2.023438 0 -2.574219 0.917969 -3.125 1.839844 L -3.125 2.207031 L -3.308594 2.390625 C -3.492188 2.390625 -3.492188 2.207031 -3.492188 2.023438 Z M 2.757812 -6.988281 L 2.390625 -6.988281 C 1.839844 -6.066406 1.101562 -5.332031 1.101562 -4.230469 Z M 2.757812 -6.988281 "/></g></g></g><g fill="#000000" fill-opacity="1"><g transform="translate(116.488685, 151.176046)"><g><path d="M -1.101562 4.597656 L -0.550781 5.148438 C -0.183594 5.515625 -0.183594 5.515625 0.367188 5.332031 C 1.101562 5.148438 1.472656 4.597656 1.839844 3.859375 C 2.207031 2.941406 2.574219 2.023438 3.308594 1.285156 C 3.675781 0.917969 4.230469 0.550781 4.414062 0 C 4.414062 -0.183594 4.597656 -0.367188 4.78125 -0.550781 C 4.964844 -0.734375 5.148438 -0.734375 5.148438 -0.917969 C 5.515625 -1.839844 7.539062 -4.597656 8.273438 -5.148438 C 9.007812 -5.882812 9.5625 -6.804688 10.296875 -7.539062 C 11.03125 -8.089844 11.398438 -9.007812 12.136719 -9.5625 C 12.136719 -10.113281 12.6875 -10.113281 13.054688 -10.296875 C 13.605469 -10.480469 14.15625 -10.847656 14.894531 -11.03125 C 15.8125 -11.214844 16.546875 -11.953125 17.46875 -11.769531 C 18.386719 -12.503906 19.488281 -12.6875 20.410156 -13.054688 C 20.777344 -13.238281 21.144531 -13.421875 21.511719 -13.789062 C 21.695312 -14.15625 22.0625 -14.34375 22.433594 -14.34375 C 23.167969 -14.527344 23.71875 -14.894531 24.453125 -15.078125 C 25.007812 -15.261719 25.558594 -15.628906 26.109375 -15.996094 C 26.292969 -16.179688 26.476562 -16.363281 26.660156 -16.363281 C 27.210938 -16.363281 27.765625 -16.730469 28.316406 -16.914062 L 29.972656 -17.46875 C 30.890625 -17.652344 32.175781 -18.019531 33.097656 -18.019531 L 33.097656 -17.46875 C 32.730469 -16.914062 32.542969 -16.179688 32.359375 -15.628906 L 31.257812 -12.871094 C 31.074219 -12.136719 31.074219 -11.398438 30.890625 -10.664062 C 30.523438 -9.929688 29.785156 -8.457031 29.785156 -7.539062 C 29.785156 -7.355469 29.601562 -6.988281 29.417969 -6.804688 C 29.234375 -6.621094 29.234375 -6.25 29.234375 -5.882812 C 29.050781 -5.332031 28.867188 -4.964844 28.683594 -4.414062 C 28.316406 -2.941406 27.765625 -0.917969 27.210938 0.550781 C 27.027344 1.101562 26.84375 1.65625 26.84375 2.207031 C 26.84375 2.757812 26.292969 3.125 26.476562 3.859375 C 26.109375 4.414062 26.109375 5.148438 25.925781 5.699219 L 25.375 8.457031 C 25.007812 9.746094 24.636719 11.03125 24.085938 12.320312 L 23.535156 13.421875 C 23.351562 14.34375 23.351562 15.261719 23.167969 16.179688 L 23.167969 16.730469 L 22.617188 18.9375 C 22.433594 19.859375 22.25 20.777344 22.25 21.878906 C 22.25 22.0625 22.0625 22.25 22.0625 22.433594 C 21.878906 23.167969 21.511719 23.902344 21.511719 24.636719 L 21.511719 25.191406 C 21.144531 25.742188 21.144531 26.292969 21.144531 26.84375 C 21.144531 27.027344 21.144531 27.210938 20.960938 27.398438 C 20.777344 27.582031 20.59375 30.339844 20.59375 30.707031 C 21.511719 31.257812 22.433594 31.441406 23.351562 31.441406 C 23.351562 31.074219 23.167969 30.707031 23.351562 30.523438 C 23.71875 29.972656 23.71875 29.234375 23.71875 28.5 L 23.167969 29.050781 L 22.617188 28.5 L 22.0625 29.050781 L 21.511719 28.5 L 21.511719 28.132812 C 21.695312 27.949219 21.695312 27.765625 21.695312 27.582031 L 21.144531 27.582031 C 21.328125 27.398438 21.328125 26.84375 21.511719 26.660156 C 21.695312 26.476562 21.695312 26.476562 22.0625 26.476562 L 22.0625 25.375 L 22.617188 24.824219 C 22.617188 23.902344 22.617188 23.71875 22.984375 23.71875 L 23.535156 23.71875 L 23.535156 24.453125 C 24.085938 23.535156 24.824219 22.984375 25.007812 21.878906 C 25.007812 21.695312 25.375 21.511719 25.558594 21.328125 C 25.375 20.777344 25.558594 20.226562 25.925781 19.675781 C 26.109375 19.488281 26.109375 19.304688 26.109375 19.121094 L 26.109375 17.835938 L 25.742188 17.835938 C 25.925781 17.652344 26.109375 17.46875 26.109375 17.285156 C 26.292969 17.101562 26.109375 16.730469 26.292969 16.363281 C 26.476562 16.179688 26.476562 15.8125 26.476562 15.445312 C 26.476562 15.078125 26.660156 15.078125 26.84375 14.894531 C 27.027344 14.710938 27.027344 14.34375 27.027344 14.15625 C 27.027344 13.972656 26.84375 13.789062 26.84375 13.605469 C 27.949219 13.238281 27.765625 12.136719 28.5 11.582031 C 28.316406 11.214844 28.132812 10.847656 27.582031 11.03125 L 27.582031 10.480469 C 27.949219 10.480469 28.316406 10.480469 28.867188 10.664062 C 28.5 9.929688 29.050781 9.746094 29.234375 9.378906 L 29.234375 9.007812 L 28.683594 8.457031 C 29.234375 8.640625 29.234375 8.089844 29.601562 7.90625 C 29.972656 7.539062 29.601562 6.988281 29.785156 6.621094 L 30.890625 4.964844 L 31.441406 4.964844 C 31.625 4.597656 31.441406 4.414062 30.890625 4.414062 L 31.441406 3.859375 C 31.257812 3.308594 31.257812 2.757812 31.441406 2.207031 L 31.992188 2.207031 C 31.992188 1.839844 32.175781 1.472656 31.625 1.101562 C 32.542969 1.101562 32.359375 0.183594 32.914062 -0.183594 C 32.359375 -0.917969 32.359375 -1.285156 32.914062 -1.839844 C 33.097656 -1.65625 33.28125 -1.472656 33.464844 -1.101562 C 33.648438 -1.65625 33.648438 -2.207031 33.832031 -2.574219 C 34.015625 -2.941406 34.015625 -3.492188 34.566406 -3.675781 C 34.382812 -3.859375 34.199219 -4.046875 34.015625 -4.414062 C 34.382812 -4.414062 34.75 -4.230469 34.75 -4.78125 C 35.488281 -5.332031 35.304688 -6.433594 35.855469 -7.171875 C 35.488281 -7.355469 35.304688 -7.539062 35.488281 -7.90625 C 35.488281 -8.089844 35.488281 -8.457031 35.855469 -8.089844 C 36.222656 -8.273438 36.40625 -8.640625 36.40625 -9.007812 C 36.589844 -9.929688 37.140625 -10.847656 37.507812 -11.769531 C 37.691406 -12.136719 37.878906 -12.320312 37.878906 -12.6875 C 37.878906 -12.871094 37.878906 -13.054688 38.0625 -13.238281 C 38.246094 -13.238281 38.246094 -13.421875 38.246094 -13.605469 C 38.246094 -14.34375 38.613281 -14.894531 38.980469 -15.445312 C 39.714844 -16.730469 40.082031 -18.203125 40.636719 -19.675781 C 40.453125 -20.226562 40.820312 -20.59375 41.371094 -20.777344 C 42.289062 -20.777344 43.761719 -21.144531 44.679688 -21.328125 C 45.230469 -21.511719 45.785156 -21.695312 46.152344 -22.0625 L 46.519531 -22.433594 C 46.335938 -23.167969 46.152344 -23.71875 45.96875 -24.269531 C 45.785156 -24.636719 45.601562 -24.636719 45.230469 -24.453125 L 44.679688 -24.453125 C 43.945312 -24.453125 43.210938 -24.085938 42.472656 -23.902344 L 42.105469 -24.269531 C 42.472656 -25.007812 42.65625 -25.925781 43.210938 -26.660156 C 43.394531 -27.027344 43.578125 -27.582031 43.761719 -28.132812 C 43.945312 -28.5 43.945312 -28.867188 43.945312 -29.234375 C 44.496094 -29.417969 44.3125 -29.972656 44.496094 -30.339844 C 44.863281 -30.707031 45.046875 -31.257812 45.230469 -31.625 C 45.601562 -32.175781 45.601562 -32.914062 45.96875 -33.464844 C 46.519531 -34.199219 46.703125 -34.933594 46.886719 -35.671875 C 47.253906 -36.589844 47.253906 -37.507812 47.988281 -38.0625 C 47.988281 -38.246094 49.277344 -40.820312 49.460938 -41.003906 C 49.277344 -41.921875 50.011719 -42.472656 50.195312 -43.210938 L 50.746094 -44.3125 C 51.667969 -46.519531 52.769531 -48.542969 54.425781 -50.378906 C 54.609375 -50.5625 54.609375 -50.746094 54.609375 -50.933594 C 54.609375 -51.484375 54.609375 -52.035156 54.976562 -52.402344 C 55.34375 -52.769531 55.527344 -53.136719 55.527344 -53.507812 L 55.527344 -54.609375 C 55.527344 -54.792969 55.527344 -54.976562 55.710938 -54.976562 C 56.082031 -55.160156 56.082031 -55.527344 56.082031 -55.894531 C 56.082031 -56.632812 55.894531 -57.367188 56.265625 -58.101562 C 56.449219 -58.46875 56.449219 -58.65625 56.265625 -59.023438 L 56.449219 -59.390625 C 55.894531 -60.492188 55.160156 -60.859375 54.058594 -60.859375 C 53.875 -60.859375 53.691406 -60.859375 53.507812 -61.042969 C 53.320312 -61.230469 53.136719 -61.230469 52.953125 -61.230469 C 51.851562 -61.230469 50.5625 -58.65625 50.195312 -57.917969 C 50.195312 -57.734375 50.011719 -57.734375 50.011719 -57.550781 C 49.277344 -56.449219 48.359375 -55.34375 47.804688 -54.058594 L 46.703125 -51.851562 C 46.703125 -51.667969 46.519531 -51.667969 46.335938 -51.667969 C 45.785156 -52.769531 45.230469 -53.691406 44.128906 -54.242188 C 43.761719 -53.875 43.394531 -53.507812 43.027344 -53.320312 L 42.472656 -52.769531 C 42.105469 -52.402344 41.921875 -52.035156 41.554688 -51.667969 C 40.636719 -50.746094 39.898438 -49.644531 38.980469 -48.726562 C 38.613281 -48.171875 38.429688 -47.621094 37.691406 -47.253906 C 37.140625 -46.886719 36.773438 -46.152344 36.222656 -45.601562 C 35.855469 -45.230469 35.671875 -44.863281 35.117188 -44.679688 C 34.933594 -44.679688 34.933594 -44.496094 34.933594 -44.3125 L 30.523438 -39.898438 C 29.972656 -39.347656 29.234375 -38.429688 28.867188 -37.878906 L 24.453125 -33.464844 L 24.269531 -33.464844 C 24.269531 -32.914062 23.902344 -32.730469 23.71875 -32.359375 L 23.167969 -31.257812 C 22.800781 -30.707031 22.25 -30.339844 21.878906 -29.785156 C 20.960938 -28.132812 19.675781 -26.84375 18.570312 -25.375 C 17.835938 -24.269531 16.914062 -23.351562 16.179688 -22.25 C 15.445312 -21.328125 14.710938 -20.410156 13.972656 -19.675781 C 13.789062 -19.488281 13.605469 -19.121094 13.421875 -18.753906 C 13.238281 -18.203125 12.503906 -18.019531 12.320312 -17.46875 C 12.320312 -17.285156 11.769531 -17.285156 11.398438 -17.285156 L 10.113281 -17.285156 C 9.929688 -17.101562 9.746094 -17.101562 9.5625 -17.101562 C 9.378906 -17.101562 9.007812 -17.285156 8.824219 -17.101562 C 8.640625 -16.914062 8.273438 -16.914062 8.089844 -16.914062 L 6.621094 -16.914062 C 6.433594 -16.730469 6.066406 -16.730469 5.882812 -16.730469 C 5.332031 -16.730469 4.964844 -16.914062 4.414062 -17.101562 C 4.046875 -17.285156 3.859375 -17.285156 3.675781 -17.101562 C 3.492188 -16.914062 3.308594 -16.730469 3.492188 -16.363281 L 3.492188 -15.8125 C 3.308594 -14.894531 3.859375 -14.15625 4.230469 -13.421875 C 4.597656 -13.054688 4.964844 -12.6875 5.148438 -12.136719 C 5.332031 -11.582031 6.066406 -11.769531 6.433594 -11.398438 C 6.804688 -11.03125 6.804688 -10.664062 6.433594 -10.113281 C 6.066406 -9.5625 5.515625 -9.195312 5.332031 -8.457031 C 5.332031 -8.273438 5.332031 -8.089844 5.148438 -7.90625 C 4.414062 -6.988281 3.859375 -5.882812 3.308594 -4.78125 L 1.65625 -2.023438 C 1.101562 -1.285156 0.734375 -0.550781 0.183594 0.183594 C -0.734375 1.472656 -1.472656 2.941406 -1.101562 4.597656 Z M 22.25 -21.878906 L 23.902344 -23.351562 C 24.085938 -23.535156 24.453125 -23.71875 24.636719 -24.085938 C 24.824219 -24.453125 25.191406 -24.636719 25.558594 -24.824219 C 25.925781 -25.191406 26.292969 -25.558594 26.476562 -26.109375 C 26.84375 -27.027344 27.765625 -27.949219 28.5 -28.5 L 28.683594 -28.5 C 29.234375 -29.234375 29.972656 -29.972656 30.890625 -30.523438 C 31.257812 -31.257812 31.992188 -31.625 32.542969 -32.175781 C 33.28125 -32.914062 34.382812 -33.464844 34.75 -34.566406 C 35.304688 -34.933594 35.671875 -35.488281 36.222656 -35.855469 L 37.878906 -37.507812 C 38.0625 -37.691406 38.246094 -38.0625 38.613281 -38.0625 C 38.796875 -38.0625 38.980469 -38.246094 39.164062 -38.429688 L 39.164062 -38.980469 L 39.714844 -39.53125 C 39.53125 -38.980469 39.53125 -38.429688 39.347656 -37.878906 L 37.507812 -33.648438 C 37.140625 -32.359375 36.589844 -31.074219 36.222656 -29.785156 C 36.039062 -29.417969 36.039062 -29.050781 36.039062 -28.683594 C 36.039062 -28.5 36.039062 -28.132812 35.855469 -27.949219 C 35.671875 -27.398438 35.855469 -26.84375 35.488281 -26.292969 C 35.304688 -25.742188 35.304688 -25.191406 35.117188 -24.636719 C 34.933594 -24.085938 34.75 -23.351562 34.566406 -22.800781 C 34.382812 -22.25 34.015625 -22.0625 33.648438 -22.0625 C 32.914062 -22.0625 32.175781 -21.878906 31.441406 -21.695312 C 31.074219 -21.511719 30.707031 -21.511719 30.339844 -21.511719 L 28.132812 -21.511719 C 27.398438 -21.511719 26.660156 -21.328125 25.925781 -21.144531 C 25.558594 -21.144531 25.191406 -20.960938 24.824219 -20.960938 L 24.453125 -20.960938 C 23.902344 -20.960938 23.351562 -20.777344 22.984375 -20.777344 C 22.617188 -20.410156 22.25 -20.59375 21.878906 -20.59375 C 21.511719 -21.144531 21.878906 -21.695312 22.25 -21.878906 Z M 22.25 -21.878906 "/></g></g></g><g fill="#000000" fill-opacity="1"><g transform="translate(141.797354, 173.301245)"><g><path d="M 53.480469 -85.105469 C 53.480469 -85.25 53.621094 -85.539062 53.765625 -85.824219 L 54.484375 -86.832031 C 55.636719 -88.699219 56.929688 -91.289062 57.503906 -93.734375 C 58.078125 -96.03125 56.355469 -98.621094 53.621094 -99.769531 C 52.328125 -100.34375 51.609375 -100.488281 51.464844 -100.34375 L 50.890625 -100.488281 C 50.027344 -100.921875 49.167969 -101.0625 48.160156 -101.0625 C 46.148438 -101.0625 44.421875 -96.894531 43.992188 -95.3125 L 42.839844 -90.714844 C 42.695312 -90.570312 42.695312 -90.28125 42.554688 -89.851562 C 42.410156 -89.417969 41.976562 -88.699219 41.546875 -87.695312 L 40.539062 -85.824219 L 33.640625 -66.273438 C 33.496094 -65.84375 33.207031 -65.410156 33.066406 -64.980469 C 32.777344 -63.972656 32.488281 -62.96875 32.058594 -62.105469 C 31.628906 -61.097656 31.339844 -60.234375 31.050781 -59.375 C 30.621094 -58.367188 30.332031 -57.503906 29.902344 -56.785156 C 29.472656 -55.921875 29.183594 -55.203125 29.039062 -54.628906 C 28.753906 -53.910156 28.464844 -53.480469 28.320312 -53.046875 C 27.601562 -51.464844 25.300781 -46.867188 23 -41.257812 C 20.558594 -35.652344 17.96875 -29.757812 16.675781 -26.308594 C 15.382812 -22.859375 14.230469 -19.984375 13.226562 -17.683594 C 12.792969 -16.390625 12.507812 -15.527344 12.074219 -14.808594 C 11.933594 -14.375 11.789062 -14.089844 11.644531 -13.945312 L 11.355469 -13.511719 C 11.355469 -13.511719 11.214844 -13.371094 11.070312 -12.9375 C 10.925781 -12.21875 10.636719 -11.355469 9.917969 -10.0625 C 9.488281 -9.34375 9.34375 -8.625 9.199219 -8.195312 C 9.058594 -7.761719 8.914062 -7.042969 8.480469 -6.324219 C 8.050781 -5.605469 7.90625 -5.03125 7.761719 -4.457031 C 6.757812 -2.15625 6.613281 -1.726562 6.039062 -0.71875 C 5.75 -0.289062 5.894531 0.574219 6.46875 1.726562 C 7.1875 2.875 8.195312 3.882812 9.488281 4.886719 C 12.21875 7.042969 12.21875 7.042969 14.953125 7.1875 C 17.683594 7.332031 18.113281 5.464844 19.121094 2.730469 C 19.265625 2.300781 19.839844 0.429688 20.125 0.144531 C 20.269531 0 20.558594 -0.429688 20.703125 -0.863281 C 20.84375 -1.292969 21.132812 -1.867188 21.5625 -2.585938 C 22.714844 -5.320312 23.144531 -6.613281 23.71875 -8.480469 C 23.863281 -8.914062 23.863281 -9.488281 24.007812 -9.917969 L 24.4375 -11.355469 C 24.582031 -11.5 24.582031 -11.789062 24.582031 -12.074219 C 24.582031 -12.21875 24.582031 -12.507812 24.726562 -12.652344 L 25.015625 -13.800781 C 25.015625 -13.945312 25.015625 -14.089844 25.160156 -14.230469 L 25.160156 -14.519531 C 25.160156 -14.664062 25.160156 -14.664062 25.300781 -14.808594 C 25.445312 -14.953125 25.734375 -15.382812 25.878906 -16.101562 C 26.019531 -16.246094 26.164062 -16.53125 26.308594 -16.964844 L 31.339844 -29.328125 C 31.484375 -30.046875 31.769531 -30.621094 32.058594 -31.195312 C 32.347656 -31.769531 32.632812 -32.347656 32.777344 -33.066406 C 33.207031 -34.214844 33.785156 -35.652344 34.503906 -37.234375 C 35.078125 -38.816406 35.652344 -40.398438 36.371094 -41.835938 C 36.945312 -43.273438 37.234375 -43.992188 37.234375 -44.132812 C 37.234375 -44.277344 37.234375 -44.421875 37.378906 -44.710938 C 37.523438 -44.855469 37.523438 -45.140625 37.664062 -45.429688 C 37.664062 -45.574219 37.808594 -45.859375 37.953125 -46.292969 C 38.097656 -47.011719 38.242188 -47.585938 38.671875 -48.304688 L 40.398438 -52.617188 C 40.828125 -53.335938 40.972656 -54.054688 41.117188 -54.484375 C 41.546875 -55.78125 41.835938 -56.355469 41.976562 -56.355469 L 46.292969 -66.847656 C 46.722656 -67.855469 47.152344 -69.003906 47.585938 -70.300781 L 50.316406 -77.054688 C 51.035156 -79.210938 51.753906 -80.9375 52.328125 -82.519531 L 52.761719 -83.523438 C 52.902344 -83.667969 52.902344 -83.957031 53.046875 -84.101562 Z M 53.480469 -85.105469 "/></g></g></g><g fill="#000000" fill-opacity="1"><g transform="translate(193.05896, 157.333353)"><g><path d="M -3.128906 11.574219 C -1.875 13.136719 -0.46875 14.390625 1.71875 14.546875 C 2.660156 14.703125 3.597656 14.703125 4.535156 14.703125 C 5.316406 14.703125 6.101562 14.546875 6.882812 14.390625 C 13.292969 12.199219 18.300781 10.636719 23.460938 5.472656 C 24.398438 4.535156 25.179688 3.285156 26.277344 2.503906 L 26.277344 2.347656 C 27.058594 1.25 27.996094 0.15625 28.777344 -0.9375 C 28.933594 -1.09375 29.089844 -1.40625 29.246094 -1.71875 C 29.71875 -2.503906 30.1875 -3.285156 30.8125 -4.066406 L 33.15625 -6.882812 C 33.628906 -7.507812 33.941406 -8.132812 34.410156 -8.757812 C 35.035156 -9.539062 35.816406 -10.167969 36.441406 -10.949219 C 37.382812 -12.199219 38.164062 -13.449219 38.945312 -14.859375 C 39.726562 -16.109375 41.449219 -16.890625 41.136719 -18.769531 C 41.136719 -18.925781 41.605469 -19.238281 41.761719 -19.550781 C 42.074219 -20.019531 42.542969 -20.488281 42.855469 -20.957031 C 43.167969 -21.269531 43.324219 -21.742188 43.636719 -22.210938 C 44.417969 -23.148438 45.046875 -24.242188 45.515625 -25.335938 C 45.828125 -26.277344 45.984375 -27.371094 47.234375 -27.839844 C 47.859375 -28.152344 48.171875 -29.246094 48.484375 -30.03125 C 48.640625 -30.1875 48.484375 -30.5 48.484375 -30.65625 L 49.269531 -30.65625 C 49.894531 -32.0625 50.519531 -33.316406 51.144531 -34.722656 C 51.300781 -34.878906 51.769531 -35.191406 51.925781 -35.503906 C 52.238281 -35.972656 52.238281 -36.597656 52.550781 -37.066406 C 53.023438 -37.851562 53.648438 -38.632812 54.117188 -39.414062 C 54.429688 -40.039062 54.898438 -40.820312 54.742188 -41.449219 C 54.585938 -42.230469 54.898438 -42.230469 55.367188 -42.386719 L 55.835938 -42.855469 L 55.367188 -43.792969 C 56.148438 -43.792969 55.992188 -44.417969 56.148438 -44.886719 C 56.304688 -45.203125 56.460938 -45.671875 56.777344 -45.828125 C 57.246094 -45.984375 57.714844 -46.453125 57.871094 -46.921875 C 58.183594 -47.859375 58.496094 -48.796875 58.964844 -49.738281 C 59.589844 -51.300781 60.371094 -52.867188 61 -54.429688 C 61.15625 -54.898438 61 -55.523438 61.15625 -55.992188 C 61.46875 -57.402344 62.09375 -58.808594 61.3125 -60.371094 C 61.3125 -60.527344 61.46875 -60.6875 61.46875 -61 L 61.78125 -60.6875 C 61.78125 -60.527344 61.625 -60.527344 61.625 -60.371094 L 61.9375 -60.527344 L 61.78125 -60.6875 C 62.40625 -62.40625 62.09375 -64.125 61.9375 -65.691406 C 61.78125 -67.253906 61.625 -68.976562 60.527344 -69.914062 C 60.371094 -70.695312 60.371094 -71.320312 60.214844 -71.945312 C 60.214844 -72.101562 59.746094 -72.101562 59.589844 -72.257812 C 58.808594 -73.199219 58.183594 -74.136719 57.402344 -75.074219 C 56.304688 -76.328125 54.898438 -77.265625 53.335938 -77.578125 L 53.023438 -77.578125 C 52.707031 -77.578125 52.394531 -77.578125 52.238281 -77.421875 C 51.457031 -77.109375 50.832031 -76.640625 50.050781 -76.328125 C 42.855469 -72.886719 35.503906 -68.035156 31.125 -61.15625 C 30.1875 -59.589844 28.777344 -58.183594 27.371094 -56.777344 C 24.867188 -54.117188 22.054688 -51.613281 19.550781 -48.796875 C 7.820312 -36.441406 -4.691406 -17.675781 -6.570312 -0.15625 C -7.195312 4.222656 -5.785156 8.132812 -3.128906 11.574219 Z M -0.78125 -1.40625 C -0.625 -2.191406 -0.46875 -2.816406 -0.625 -3.597656 L -0.625 -4.066406 C 0.46875 -5.628906 0.46875 -7.664062 0.9375 -9.382812 C 1.40625 -10.949219 2.347656 -12.199219 2.816406 -13.765625 C 2.972656 -14.234375 2.972656 -14.703125 3.128906 -15.171875 C 3.128906 -15.328125 3.441406 -15.484375 3.597656 -15.640625 C 3.753906 -15.953125 3.753906 -16.265625 3.910156 -16.421875 C 4.222656 -16.890625 4.535156 -17.203125 4.378906 -17.832031 C 4.222656 -18.457031 5.003906 -19.238281 5.472656 -19.863281 C 6.257812 -20.800781 7.039062 -21.742188 7.195312 -22.992188 L 7.195312 -23.304688 C 7.976562 -23.773438 8.289062 -24.554688 8.601562 -25.335938 C 8.757812 -25.652344 9.382812 -25.808594 9.695312 -26.121094 C 10.324219 -27.058594 10.792969 -28.152344 11.417969 -29.089844 C 12.199219 -30.1875 13.136719 -31.28125 13.921875 -32.375 C 14.546875 -33.316406 15.328125 -34.097656 15.953125 -35.035156 C 16.109375 -35.191406 15.953125 -35.503906 15.953125 -35.816406 C 16.265625 -35.972656 16.734375 -36.128906 17.203125 -36.285156 C 17.046875 -36.441406 16.890625 -36.753906 16.734375 -36.910156 L 17.675781 -37.851562 L 17.675781 -38.007812 C 18.613281 -38.164062 18.613281 -39.257812 19.238281 -39.726562 C 19.550781 -39.882812 19.707031 -40.195312 20.019531 -40.195312 C 20.800781 -40.351562 21.269531 -40.664062 20.957031 -41.292969 L 22.992188 -43.324219 C 23.148438 -43.324219 23.460938 -43.167969 23.773438 -43.167969 C 23.929688 -43.167969 23.929688 -43.636719 24.085938 -43.792969 C 24.085938 -43.949219 24.242188 -44.105469 24.398438 -44.261719 L 24.867188 -43.792969 C 25.179688 -44.417969 25.652344 -45.046875 26.121094 -45.828125 L 26.433594 -45.515625 C 27.214844 -46.453125 27.996094 -47.234375 28.777344 -48.171875 L 31.59375 -51.925781 C 31.75 -52.082031 31.75 -52.238281 31.90625 -52.394531 C 32.84375 -53.648438 32.6875 -54.742188 31.75 -55.835938 C 31.28125 -56.304688 31.59375 -56.617188 32.0625 -56.777344 C 33 -57.402344 33.941406 -57.871094 34.722656 -58.808594 C 35.035156 -59.277344 35.816406 -59.277344 36.441406 -59.589844 C 37.539062 -60.058594 38.632812 -60.527344 39.726562 -61.15625 C 40.976562 -61.78125 42.230469 -62.5625 43.480469 -63.1875 C 43.636719 -63.1875 43.792969 -63.1875 43.949219 -63.34375 C 45.046875 -64.910156 46.921875 -65.535156 48.328125 -66.785156 C 49.269531 -67.722656 50.363281 -68.507812 51.769531 -68.820312 C 51.925781 -68.820312 52.082031 -68.976562 52.238281 -69.132812 C 53.023438 -69.757812 53.804688 -70.382812 54.742188 -70.851562 C 54.898438 -70.851562 55.054688 -71.007812 55.054688 -71.007812 C 55.523438 -71.007812 55.835938 -70.539062 55.835938 -70.070312 C 55.992188 -68.347656 56.148438 -66.628906 55.679688 -64.910156 L 56.617188 -65.847656 C 55.992188 -63.65625 55.679688 -61.46875 55.210938 -59.277344 C 54.585938 -56.777344 53.960938 -54.117188 53.023438 -51.769531 C 52.867188 -51.144531 52.550781 -50.519531 52.238281 -50.050781 C 51.457031 -48.640625 50.675781 -47.390625 49.894531 -45.984375 C 49.738281 -45.828125 49.582031 -45.515625 49.582031 -45.359375 C 50.050781 -44.261719 49.113281 -43.636719 48.796875 -42.699219 C 48.640625 -42.074219 48.640625 -41.449219 48.328125 -40.976562 C 47.703125 -39.726562 47.078125 -38.476562 46.296875 -37.226562 C 43.480469 -32.53125 40.820312 -27.839844 38.007812 -23.148438 C 36.753906 -21.113281 35.347656 -19.238281 34.097656 -17.359375 C 33.785156 -16.890625 33.628906 -16.265625 33.316406 -15.796875 C 32.84375 -15.171875 32.375 -14.546875 31.75 -14.078125 L 42.074219 -30.96875 L 41.605469 -30.96875 L 41.136719 -30.5 L 37.851562 -24.867188 C 37.539062 -24.242188 37.066406 -23.617188 36.753906 -22.992188 C 28.308594 -10.167969 22.210938 -1.5625 10.636719 9.382812 C 9.695312 10.324219 8.289062 10.792969 7.039062 11.417969 C 6.882812 11.574219 6.570312 11.574219 6.257812 11.574219 C 4.378906 11.417969 2.191406 9.695312 1.5625 7.976562 C 1.40625 7.664062 1.09375 7.351562 0.9375 7.039062 C 0.625 6.101562 0.46875 5.003906 -0.15625 4.222656 C -0.46875 3.753906 -0.9375 3.285156 -1.09375 2.660156 C -1.09375 2.503906 -1.25 2.347656 -1.25 2.191406 C -1.09375 0.9375 -1.09375 -0.3125 -0.78125 -1.40625 Z M 60.214844 -64.753906 L 60.371094 -64.910156 C 60.527344 -65.066406 60.214844 -65.378906 60.214844 -65.691406 C 60.214844 -65.847656 60.371094 -66.003906 60.371094 -66.160156 C 60.527344 -66.160156 60.84375 -66.160156 60.84375 -66.003906 C 61 -65.066406 61 -64.125 61 -63.1875 C 60.058594 -63.5 59.902344 -63.96875 60.214844 -64.753906 Z M 46.453125 -38.789062 L 47.390625 -41.136719 L 46.921875 -41.136719 L 45.984375 -38.789062 Z M 46.453125 -38.789062 "/></g></g></g><g fill="#000000" fill-opacity="1"><g transform="translate(242.166956, 157.333353)"><g><path d="M -9.855469 21.113281 C -9.070312 20.800781 -9.695312 21.585938 -9.382812 21.742188 C -9.070312 21.113281 -8.601562 20.488281 -7.820312 20.644531 C -7.195312 20.644531 -6.882812 20.332031 -6.570312 19.863281 C -5.945312 19.082031 -5.316406 18.457031 -4.691406 17.832031 C -3.441406 16.578125 -2.035156 15.328125 -0.78125 14.078125 C -0.625 13.921875 -0.46875 13.605469 -0.46875 13.292969 C -0.625 12.199219 -0.625 12.042969 0.78125 11.886719 C 0.625 12.355469 0.46875 12.824219 0.3125 13.449219 C 0.625 13.292969 0.78125 13.136719 0.9375 12.980469 L 2.191406 11.730469 C 2.191406 11.730469 2.347656 11.886719 2.347656 12.042969 L 2.816406 11.574219 C 2.972656 11.417969 3.128906 11.417969 3.285156 11.417969 L 2.972656 11.261719 L 3.910156 10.792969 L 3.285156 10.792969 C 3.753906 10.167969 4.378906 9.539062 5.003906 8.914062 C 5.316406 8.445312 5.785156 8.445312 6.101562 8.132812 C 6.726562 7.351562 7.351562 6.570312 7.820312 5.785156 C 8.445312 5.003906 8.914062 4.066406 9.382812 3.128906 C 10.324219 1.875 11.261719 0.78125 12.042969 -0.46875 C 12.980469 -1.71875 13.765625 -3.128906 14.546875 -4.535156 C 15.015625 -5.160156 15.328125 -5.785156 15.796875 -6.414062 C 15.953125 -6.726562 16.265625 -7.039062 16.578125 -7.351562 C 17.046875 -7.976562 17.515625 -8.601562 17.988281 -9.382812 C 18.300781 -9.855469 18.457031 -10.324219 18.613281 -10.949219 C 17.515625 -10.324219 16.421875 -9.539062 15.796875 -8.289062 L 14.859375 -6.414062 C 14.390625 -5.316406 13.765625 -4.378906 12.824219 -3.597656 C 12.199219 -2.972656 11.886719 -1.875 11.417969 -1.09375 L 6.726562 5.472656 C 6.414062 5.945312 6.101562 6.257812 5.785156 6.726562 C 5.472656 6.414062 5.316406 6.101562 5.160156 5.945312 C 5.472656 5.628906 5.945312 5.316406 6.257812 4.847656 C 6.414062 4.691406 6.257812 4.222656 6.257812 4.222656 C 5.785156 4.222656 5.945312 3.910156 6.101562 3.597656 C 6.257812 3.128906 6.414062 2.503906 6.726562 2.191406 C 6.882812 2.035156 7.507812 2.191406 7.976562 2.191406 L 7.976562 1.71875 C 7.351562 0.9375 7.507812 0.46875 8.445312 0.3125 C 8.601562 0.3125 8.757812 0 8.914062 -0.15625 C 8.757812 -0.3125 8.601562 -0.46875 8.289062 -0.625 C 8.445312 -0.78125 8.601562 -0.9375 8.757812 -0.9375 C 9.695312 -0.9375 9.695312 -1.5625 9.855469 -2.191406 C 9.855469 -2.503906 9.855469 -2.816406 10.011719 -2.972656 C 10.636719 -3.753906 11.417969 -4.535156 12.042969 -5.316406 C 12.199219 -5.472656 12.199219 -5.785156 12.355469 -5.945312 L 12.824219 -6.414062 C 12.511719 -7.195312 12.511719 -7.195312 13.292969 -7.351562 C 13.921875 -7.507812 14.390625 -7.664062 14.546875 -8.601562 C 14.703125 -9.226562 15.640625 -9.855469 16.109375 -10.480469 C 16.265625 -10.324219 16.421875 -10.324219 16.578125 -10.324219 C 16.890625 -10.324219 17.675781 -12.511719 17.832031 -12.980469 C 18.144531 -13.449219 18.457031 -13.921875 18.613281 -14.390625 C 18.769531 -15.328125 19.238281 -15.953125 20.019531 -16.421875 L 20.488281 -16.890625 C 20.800781 -17.046875 20.957031 -17.203125 21.113281 -17.359375 C 21.269531 -17.046875 21.585938 -16.734375 21.585938 -16.421875 C 21.585938 -16.109375 21.425781 -15.640625 21.269531 -15.328125 L 20.800781 -14.390625 C 20.644531 -14.390625 20.488281 -14.234375 20.332031 -14.234375 C 20.332031 -13.605469 20.488281 -12.980469 20.488281 -12.355469 C 20.644531 -12.980469 20.800781 -13.605469 21.113281 -14.390625 C 21.269531 -14.390625 21.269531 -14.390625 21.425781 -14.546875 C 21.585938 -14.859375 21.742188 -15.015625 21.898438 -15.015625 C 22.210938 -15.015625 22.367188 -14.703125 22.523438 -14.390625 L 23.460938 -12.511719 C 24.554688 -9.695312 25.496094 -6.882812 26.746094 -4.066406 C 27.683594 -2.035156 28.777344 0 29.71875 2.035156 L 32.53125 8.132812 L 40.039062 23.148438 C 41.292969 25.652344 41.761719 28.464844 43.949219 30.5 C 45.046875 31.59375 45.671875 33.15625 46.609375 34.410156 C 47.234375 35.347656 48.015625 36.128906 48.796875 36.910156 C 48.796875 36.128906 48.640625 35.347656 48.640625 34.566406 C 48.640625 34.097656 48.171875 33.472656 49.113281 33.316406 L 49.113281 32.84375 C 49.113281 32.53125 48.957031 32.375 48.957031 32.0625 C 48.484375 30.03125 48.015625 27.996094 47.390625 26.121094 C 46.921875 24.554688 46.140625 22.992188 45.828125 21.269531 C 45.671875 20.488281 44.105469 12.667969 44.105469 12.355469 C 43.949219 11.261719 43.480469 10.011719 43.011719 9.070312 C 42.074219 6.570312 40.664062 3.910156 39.257812 1.71875 C 38.632812 0.46875 38.007812 -0.78125 37.066406 -1.71875 C 36.285156 -2.660156 35.972656 -3.597656 35.816406 -4.691406 L 35.347656 -9.382812 C 35.347656 -9.695312 35.191406 -10.011719 35.035156 -10.324219 L 34.097656 -12.199219 C 33.941406 -12.355469 33.785156 -12.667969 33.785156 -12.667969 C 33.628906 -12.667969 33.472656 -12.511719 33.472656 -12.511719 C 33 -12.511719 33 -12.980469 32.84375 -13.292969 C 32.53125 -14.234375 32.375 -15.328125 31.90625 -16.109375 C 31.28125 -17.046875 31.125 -18.144531 31.28125 -19.082031 C 31.4375 -20.175781 31.125 -20.957031 30.5 -21.742188 C 29.875 -22.367188 29.875 -22.992188 30.5 -23.460938 C 31.125 -23.929688 31.90625 -24.242188 32.21875 -25.023438 C 32.21875 -25.179688 32.375 -25.335938 32.53125 -25.335938 C 33.316406 -25.808594 33.785156 -26.433594 34.097656 -27.371094 C 34.097656 -27.527344 34.410156 -27.839844 34.566406 -27.839844 C 35.191406 -27.839844 35.191406 -27.839844 35.035156 -28.464844 L 35.035156 -28.777344 C 35.503906 -29.246094 35.816406 -29.71875 36.285156 -30.1875 C 37.066406 -30.8125 37.851562 -31.4375 38.632812 -31.90625 C 40.664062 -33.15625 42.699219 -34.253906 44.730469 -35.347656 C 44.886719 -35.347656 45.359375 -35.191406 45.359375 -35.035156 C 45.515625 -34.722656 45.671875 -34.566406 45.984375 -34.566406 C 46.609375 -34.566406 52.082031 -38.007812 53.335938 -38.945312 C 53.804688 -39.257812 54.117188 -39.726562 54.585938 -40.039062 C 56.304688 -41.136719 58.027344 -42.230469 59.902344 -43.167969 C 63.8125 -45.515625 68.035156 -47.546875 72.257812 -49.425781 C 72.730469 -49.738281 73.355469 -49.894531 73.824219 -50.207031 C 74.917969 -50.988281 76.011719 -51.613281 76.953125 -52.550781 C 77.578125 -53.179688 78.671875 -53.492188 79.609375 -53.960938 C 80.078125 -54.117188 80.550781 -54.429688 81.019531 -54.742188 L 79.609375 -54.898438 C 79.140625 -54.742188 78.671875 -54.742188 78.359375 -54.585938 L 75.074219 -53.179688 C 73.042969 -52.394531 70.851562 -51.613281 68.820312 -50.832031 C 67.253906 -50.207031 65.847656 -49.425781 64.28125 -48.796875 C 63.1875 -48.328125 62.09375 -48.015625 61 -47.546875 L 49.269531 -42.386719 C 48.957031 -42.230469 48.640625 -41.917969 48.328125 -41.761719 C 46.453125 -40.820312 44.574219 -40.039062 42.855469 -39.101562 C 42.074219 -38.789062 41.761719 -38.789062 40.976562 -38.789062 C 41.449219 -39.570312 41.761719 -40.351562 42.230469 -41.136719 L 45.984375 -46.765625 C 46.453125 -47.390625 46.609375 -48.015625 46.296875 -48.796875 L 46.296875 -47.390625 L 45.359375 -47.859375 C 45.046875 -47.078125 44.730469 -46.140625 44.261719 -45.359375 C 43.792969 -44.574219 43.324219 -43.792969 42.699219 -43.324219 C 41.917969 -42.855469 41.605469 -42.230469 41.292969 -41.449219 C 41.136719 -41.292969 41.136719 -41.136719 40.976562 -40.976562 C 40.507812 -40.195312 39.726562 -39.570312 40.039062 -38.476562 C 40.039062 -38.320312 39.882812 -38.164062 39.726562 -38.164062 L 37.382812 -36.753906 C 36.597656 -36.285156 35.503906 -36.441406 34.878906 -35.660156 C 34.566406 -35.347656 34.097656 -35.191406 33.628906 -34.878906 C 33.472656 -35.191406 33.316406 -35.347656 33.15625 -35.660156 C 33.316406 -35.660156 33.316406 -35.816406 33.472656 -35.816406 L 33.15625 -36.128906 C 33.15625 -36.910156 33.628906 -37.695312 34.410156 -38.632812 C 34.722656 -38.945312 34.878906 -39.570312 35.347656 -39.570312 C 35.503906 -39.570312 35.816406 -39.570312 35.972656 -39.414062 C 36.128906 -40.351562 36.128906 -41.292969 36.753906 -42.074219 C 38.007812 -43.792969 39.101562 -45.671875 40.351562 -47.546875 C 40.976562 -48.484375 41.449219 -49.582031 42.542969 -50.207031 C 42.699219 -50.363281 42.855469 -50.675781 43.011719 -50.832031 C 43.636719 -52.082031 44.261719 -53.335938 45.046875 -54.742188 L 45.515625 -54.273438 L 46.453125 -55.679688 L 47.234375 -54.898438 L 49.582031 -57.714844 L 50.050781 -57.714844 L 50.050781 -57.246094 C 49.894531 -57.246094 49.582031 -57.246094 49.425781 -57.089844 L 49.425781 -56.933594 L 48.484375 -55.523438 C 48.484375 -55.367188 48.640625 -55.054688 48.796875 -55.054688 C 48.957031 -55.054688 49.269531 -55.210938 49.425781 -55.367188 L 50.050781 -56.777344 L 50.050781 -56.460938 C 49.582031 -55.992188 50.207031 -55.210938 49.582031 -54.742188 L 49.582031 -54.585938 C 50.363281 -54.117188 50.050781 -53.492188 49.894531 -52.867188 C 50.675781 -52.867188 50.519531 -53.492188 50.519531 -53.960938 C 50.519531 -54.429688 50.363281 -54.898438 50.832031 -54.898438 L 51.300781 -54.898438 C 51.300781 -54.898438 51.457031 -55.210938 51.613281 -55.367188 L 53.960938 -59.121094 C 54.429688 -59.902344 54.742188 -60.6875 55.210938 -61.3125 C 56.148438 -62.40625 56.933594 -63.5 56.777344 -65.066406 C 56.777344 -65.847656 56.933594 -66.628906 56.777344 -67.410156 C 56.617188 -68.035156 56.304688 -68.507812 56.148438 -69.132812 C 55.367188 -71.164062 53.804688 -72.101562 51.613281 -72.257812 C 50.832031 -72.417969 50.050781 -71.632812 50.050781 -70.851562 C 50.050781 -70.539062 50.050781 -70.226562 49.894531 -70.070312 C 48.796875 -68.820312 47.703125 -67.722656 46.765625 -66.472656 C 44.261719 -63.65625 41.761719 -60.214844 39.414062 -57.089844 C 37.851562 -54.898438 36.441406 -52.550781 34.878906 -50.207031 L 27.839844 -39.882812 C 26.589844 -38.007812 25.335938 -35.972656 23.929688 -34.097656 C 22.054688 -31.4375 20.019531 -28.933594 18.144531 -26.277344 C 17.203125 -25.023438 15.484375 -24.554688 14.078125 -24.554688 C 12.667969 -24.398438 11.105469 -24.085938 9.695312 -24.085938 C 8.914062 -24.085938 8.289062 -24.085938 7.507812 -24.398438 L 7.195312 -24.398438 C 6.726562 -24.085938 6.101562 -23.773438 5.945312 -23.460938 C 5.785156 -22.992188 5.945312 -22.367188 6.570312 -22.210938 C 6.726562 -22.210938 7.039062 -22.054688 7.039062 -21.898438 C 7.039062 -21.113281 7.351562 -20.800781 8.132812 -20.800781 C 8.289062 -20.800781 8.445312 -20.644531 8.445312 -20.488281 C 8.601562 -19.707031 9.070312 -19.550781 9.695312 -19.550781 L 13.449219 -19.550781 C 12.980469 -18.769531 12.667969 -18.144531 12.355469 -17.515625 C 10.324219 -14.390625 8.289062 -11.261719 6.414062 -8.132812 C 5.316406 -6.414062 4.378906 -4.691406 3.285156 -2.972656 L -0.46875 3.128906 C -2.816406 6.882812 -5.160156 10.636719 -7.507812 14.546875 C -8.601562 16.421875 -9.382812 18.457031 -9.855469 20.644531 Z M 37.695312 2.347656 C 37.695312 2.035156 37.695312 1.71875 37.539062 1.40625 L 38.164062 1.40625 L 37.695312 2.347656 C 38.476562 2.503906 38.945312 2.816406 38.632812 3.597656 C 38.632812 3.753906 38.789062 3.910156 38.945312 3.910156 C 40.195312 4.535156 40.820312 5.785156 41.449219 6.882812 C 41.917969 7.664062 42.074219 8.601562 42.386719 9.382812 C 42.542969 9.539062 42.855469 9.695312 43.011719 9.855469 C 42.230469 9.855469 41.917969 9.226562 41.605469 8.757812 L 41.136719 8.289062 L 41.136719 8.757812 C 41.136719 9.070312 41.292969 9.382812 41.449219 9.695312 C 40.664062 9.382812 40.351562 8.757812 40.351562 7.976562 C 40.351562 7.664062 40.195312 7.351562 40.039062 7.195312 C 39.570312 6.570312 38.945312 5.945312 38.476562 5.472656 C 38.789062 5.003906 39.257812 4.691406 39.257812 4.535156 C 39.101562 4.222656 38.632812 4.066406 38.320312 3.753906 C 38.007812 3.441406 37.695312 2.972656 37.695312 2.347656 Z M 35.191406 -11.886719 L 35.660156 -11.886719 L 34.253906 -16.578125 L 33.785156 -16.578125 Z M 27.371094 -33.472656 C 27.839844 -34.097656 28.464844 -34.722656 29.089844 -35.347656 L 27.683594 -33 L 27.839844 -32.6875 C 27.839844 -32.53125 27.527344 -32.53125 27.371094 -32.53125 C 27.371094 -32.84375 27.214844 -33.316406 27.371094 -33.472656 Z M 46.765625 -49.582031 L 48.640625 -49.582031 C 48.328125 -50.050781 48.015625 -50.363281 47.859375 -50.675781 Z M 42.855469 10.167969 L 43.636719 12.355469 C 43.480469 12.199219 43.324219 12.042969 43.167969 11.730469 C 43.011719 11.574219 43.011719 11.261719 42.855469 11.261719 C 41.917969 10.792969 42.542969 10.480469 42.855469 10.167969 Z M 32.53125 -17.988281 C 32.6875 -17.675781 32.84375 -17.515625 33 -17.515625 C 33.15625 -17.515625 33.472656 -17.675781 33.628906 -17.675781 C 33.472656 -17.988281 33.316406 -18.144531 33.15625 -18.300781 L 32.53125 -18.925781 C 32.53125 -18.613281 32.375 -18.300781 32.53125 -17.988281 Z M 50.988281 -58.496094 L 51.300781 -58.183594 L 50.519531 -57.402344 L 50.050781 -57.871094 L 50.050781 -58.027344 C 50.363281 -58.027344 50.675781 -58.496094 50.988281 -58.496094 Z M 48.015625 -52.082031 L 49.269531 -52.082031 C 48.796875 -52.394531 48.484375 -52.550781 48.171875 -52.707031 C 48.015625 -52.707031 47.703125 -52.707031 47.546875 -52.550781 C 47.703125 -52.238281 47.859375 -52.082031 48.015625 -52.082031 Z M 32.0625 -35.191406 C 32.375 -35.660156 32.6875 -35.972656 33 -36.285156 L 33.15625 -36.128906 L 33.15625 -35.660156 C 33 -35.503906 32.6875 -35.347656 32.53125 -35.191406 L 32.6875 -34.878906 C 32.53125 -34.878906 32.375 -35.035156 32.0625 -35.191406 Z M 4.378906 7.820312 L 5.945312 7.820312 C 5.628906 8.132812 5.472656 8.289062 5.160156 8.289062 C 5.003906 8.289062 4.691406 8.132812 4.378906 7.820312 Z M 45.984375 -51.457031 L 46.453125 -52.394531 L 46.296875 -52.707031 C 45.984375 -52.238281 45.828125 -51.925781 45.671875 -51.613281 C 45.671875 -51.613281 45.828125 -51.457031 45.984375 -51.457031 Z M 2.347656 10.949219 C 2.660156 10.792969 2.972656 10.792969 3.128906 10.792969 L 2.191406 11.730469 C 2.191406 11.417969 2.191406 11.105469 2.347656 10.949219 Z M 2.347656 10.949219 "/></g></g></g></svg>